<?xml version="1.0" encoding="UTF-8"?>
<svg width="1921px" height="628px" viewBox="0 0 1921 628" version="1.1" xmlns="http://www.w3.org/2000/svg" xmlns:xlink="http://www.w3.org/1999/xlink">
    <!-- Generator: Sketch 52.5 (67469) - http://www.bohemiancoding.com/sketch -->
    <title>feedture logo</title>
    <desc>Created with Sketch.</desc>
    <defs>
        <path d="M0.2,0 L0.2,199.2 C0.2,212.2 17.9,218.9 28.5,209.9 L183.375977,78.7304688" id="path-1"></path>
        <path d="M-27.9,53.7 L149,53.7 L149,100 C137.014757,108.436198 128.30447,112.654297 122.869141,112.654297 C119.001779,112.654297 84.16212,116.925248 34.9121094,112.654297 C21.6002891,111.499899 0.662919351,111.499899 -27.9,112.654297 L-27.9,53.7 Z" id="path-3"></path>
        <filter x="-37.9%" y="-106.8%" width="175.7%" height="320.2%" filterUnits="objectBoundingBox" id="filter-4">
            <feOffset dx="0" dy="2" in="SourceAlpha" result="shadowOffsetOuter1"></feOffset>
            <feGaussianBlur stdDeviation="22" in="shadowOffsetOuter1" result="shadowBlurOuter1"></feGaussianBlur>
            <feColorMatrix values="0 0 0 0 0   0 0 0 0 0   0 0 0 0 0  0 0 0 0.5 0" type="matrix" in="shadowBlurOuter1"></feColorMatrix>
        </filter>
        <linearGradient x1="28.14064%" y1="48.18416%" x2="120.66954%" y2="48.18416%" id="linearGradient-5">
            <stop stop-color="#F7931E" offset="0.1198948%"></stop>
            <stop stop-color="#F13324" offset="100%"></stop>
        </linearGradient>
        <linearGradient x1="-0.00237661147%" y1="50.0039855%" x2="100.004537%" y2="50.0039855%" id="linearGradient-6">
            <stop stop-color="#F7931E" offset="0.1198948%"></stop>
            <stop stop-color="#F13324" offset="100%"></stop>
        </linearGradient>
        <linearGradient x1="36.6354161%" y1="30.2749426%" x2="54.1982954%" y2="44.136791%" id="linearGradient-7">
            <stop stop-color="#FFFFFF" offset="0%"></stop>
            <stop stop-color="#F7931E" stop-opacity="0" offset="99.88%"></stop>
        </linearGradient>
    </defs>
    <g id="Symbols" stroke="none" stroke-width="1" fill="none" fill-rule="evenodd">
        <g id="feedture-logo">
            <g>
                <g id="Group-2">
                    <g id="Group" transform="translate(260.000000, 331.000000)">
                        <g id="XMLID_17_-link">
                            <mask id="mask-2" fill="white">
                                <use xlink:href="#path-1"></use>
                            </mask>
                            <use id="XMLID_17_" fill="#F39800" fill-rule="nonzero" xlink:href="#path-1"></use>
                            <g id="Rectangle-path" opacity="0.44" fill-rule="nonzero" mask="url(#mask-2)">
                                <use fill="black" fill-opacity="1" filter="url(#filter-4)" xlink:href="#path-3"></use>
                                <use fill="#606060" xlink:href="#path-3"></use>
                            </g>
                        </g>
                    </g>
                    <g id="Group" fill-rule="nonzero">
                        <g id="XMLID_1_-link" transform="translate(0.000000, 64.000000)" fill="url(#linearGradient-6)">
                            <path d="M169.5,37 L19.9,232.5 C-26.6,293.3 16.7,381 93.2,381 L370.8,381 C444.2,381 488.3,299.5 448.1,238.1 L320.2,42.6 C285.3,-10.7 208.3,-13.5 169.5,37 Z" id="XMLID_1_"></path>
                        </g>
                        <g opacity="0.14" transform="translate(49.000000, 0.000000)" fill="url(#linearGradient-7)" id="Shape">
                            <path d="M0.5,529.4 C45.8,508.3 68.4,457.9 86.6,411.3 C104.8,364.7 125.4,314.1 169.4,290.2 C200,273.6 240.2,271 261.1,243.2 C279.9,218.1 274.7,183.5 277.2,152.3 C282.8,82.4 335.6,18.7 403.2,0.1 L679.5,185.6 L428,875.6 L0.5,529.4 Z"></path>
                        </g>
                    </g>
                    <path d="M133.4,286.2 C190,342.8 281.8,342.8 338.4,286.2 C348.1,295.9 357.7,305.5 367.4,315.2 C294.8,387.8 177,387.8 104.4,315.2 C114.1,305.5 123.7,295.8 133.4,286.2 Z" id="Shape" fill="#FFFFFF" fill-rule="nonzero"></path>
                </g>
                <g id="Group" transform="translate(586.000000, 176.000000)" fill="#000000" fill-rule="nonzero">
                    <polygon id="Shape" points="56.3 100.6 152.9 100.6 152.9 144.4 56.3 144.4 56.3 230.7 0 230.7 0 14.9 162.3 14.9 162.3 58.7 56.3 58.7"></polygon>
                    <path d="M339,161.3 L222.7,161.3 C225.5,189.1 237.7,197 253.7,197 C269.7,197 279.3,188.9 281.5,176 L336.9,176 C327.2,213.8 295.9,235.1 253.1,235.1 C205.2,235.1 167.1,206.6 167.1,147.8 C167.1,99 200.6,59.3 256.2,59.3 C311.8,59.3 340,101.8 340,145 C340,150 339.6,155.7 339,161.3 Z M224.5,126.9 L281.1,126.9 C278,107.2 268.3,97.5 253.3,97.5 C238.6,97.5 228.3,106.3 224.5,126.9 Z" id="Shape"></path>
                    <path d="M519.2,161.3 L402.8,161.3 C405.6,189.1 417.8,197 433.8,197 C449.8,197 459.4,188.9 461.6,176 L517,176 C507.3,213.8 476,235.1 433.2,235.1 C385.3,235.1 347.2,206.6 347.2,147.8 C347.2,99 380.7,59.3 436.3,59.3 C492,59.3 520.1,101.8 520.1,145 C520.1,150 519.8,155.7 519.2,161.3 Z M404.7,126.9 L461.3,126.9 C458.2,107.2 448.5,97.5 433.5,97.5 C418.8,97.5 408.5,106.3 404.7,126.9 Z" id="Shape"></path>
                    <path d="M712.2,230.7 L655.9,230.7 L655.9,206.3 L643.4,224.8 C634,231.7 617.8,235.1 600.9,235.1 C555.5,235.1 527.4,200.4 527.4,151 C527.4,91.6 563.7,59.4 606.5,59.4 C620.3,59.4 636.5,62.5 645,67.5 L655.9,85.3 L655.9,0.9 L712.2,0.9 L712.2,230.7 Z M655.9,149.4 L655.9,142.2 C655.9,108.7 638.7,97.5 621.8,97.5 C599.9,97.5 584.9,114.1 584.9,148.2 C584.9,179.5 600.5,197 620.2,197 C640.8,197 655.9,184.4 655.9,149.4 Z" id="Shape"></path>
                    <path d="M805.7,161.6 C805.7,167.2 805.7,173.5 806,177.9 C807.3,194.8 812.6,198.5 839.2,197.3 L839.2,232.3 C828.3,234.2 817.9,235.1 806,235.1 C764.4,235.1 751.9,222.3 750,196.6 C749.4,186.9 749.4,179.1 749.4,169.7 L749.4,100 L722.8,100 L722.8,65 L749.4,65 L749.4,21.8 L805.7,21.8 L805.7,65 L842.6,65 L842.6,100 L805.7,100 L805.7,161.6 Z" id="Shape"></path>
                    <path d="M1021.8,230.7 L965.5,230.7 L965.5,202.6 L950.5,225.4 C940.2,231.7 928.3,235.1 913,235.1 C878.6,235.1 857.6,215.7 853.9,192.9 C852.6,184.5 852.3,174.8 852.3,161.3 L852.3,63.7 L908.6,63.7 L908.6,148.8 C908.6,154.1 908.9,163.2 909.9,171.6 C911.8,187.6 919.3,196.9 937.1,196.9 C954.9,196.9 965.6,180.3 965.6,158.1 L965.6,63.6 L1021.9,63.6 L1021.9,230.7 L1021.8,230.7 Z" id="Shape"></path>
                    <path d="M1161.6,60.3 L1161.6,106.3 C1119.4,103.5 1104,119.1 1104,169.5 L1104,230.8 L1047.7,230.8 L1047.7,63.8 L1104,63.8 L1104,97.6 L1115.9,74.1 C1125,64.1 1138.1,59.4 1148.7,59.4 C1154.1,59.3 1157.5,59.6 1161.6,60.3 Z" id="Shape"></path>
                    <path d="M1333.9,161.3 L1217.5,161.3 C1220.3,189.1 1232.5,197 1248.5,197 C1264.5,197 1274.1,188.9 1276.3,176 L1331.7,176 C1322,213.8 1290.7,235.1 1247.9,235.1 C1200,235.1 1161.9,206.6 1161.9,147.8 C1161.9,99 1195.4,59.3 1251,59.3 C1306.6,59.3 1334.8,101.8 1334.8,145 C1334.9,150 1334.6,155.7 1333.9,161.3 Z M1219.5,126.9 L1276.1,126.9 C1273,107.2 1263.3,97.5 1248.3,97.5 C1233.5,97.5 1223.2,106.3 1219.5,126.9 Z" id="Shape"></path>
                </g>
            </g>
        </g>
    </g>
</svg>