<?xml version="1.0" encoding="UTF-8"?>
<svg width="1037px" height="775px" viewBox="0 0 1037 775" version="1.1" xmlns="http://www.w3.org/2000/svg" xmlns:xlink="http://www.w3.org/1999/xlink">
    <!-- Generator: Sketch 52.6 (67491) - http://www.bohemiancoding.com/sketch -->
    <title>Group 24</title>
    <desc>Created with Sketch.</desc>
    <defs>
        <polygon id="path-1" points="0 0 532 0 532 482 0 482"></polygon>
        <polygon id="path-3" points="0.624764777 0.702795796 681.624765 0.702795796 681.624765 577.702796 0.624764777 577.702796"></polygon>
    </defs>
    <g id="Page-1" stroke="none" stroke-width="1" fill="none" fill-rule="evenodd">
        <g id="Landing-Page---Feedture-v3" transform="translate(-366.000000, -1165.000000)">
            <g id="Group-24" transform="translate(318.000000, 1058.000000)">
                <g id="Group-7" opacity="0.3125">
                    <g id="Group-6" transform="translate(731.000000, 361.000000)">
                        <mask id="mask-2" fill="white">
                            <use xlink:href="#path-1"></use>
                        </mask>
                        <g id="Clip-5"></g>
                    </g>
                    <g id="Group-6" transform="translate(440.681331, 421.239988) rotate(-330.000000) translate(-440.681331, -421.239988) translate(99.681331, 132.239988)">
                        <mask id="mask-4" fill="white">
                            <use xlink:href="#path-3"></use>
                        </mask>
                        <g id="Clip-5"></g>
                        <path d="M401.203272,62.3523508 C392.116082,105.576319 323.630202,127.661674 285.521227,99.6570498 C257.738825,79.2420765 248.453912,41.3195653 216.003333,27.3816088 C172.017343,8.48685384 122.144692,50.1477006 112.785833,92.7981908 C103.42376,135.448681 117.182343,179.695186 111.454824,222.851939 C105.257916,269.551101 76.9691521,311.194786 51.9821904,352.633964 C26.9952287,394.071712 4.15588541,439.692563 10.2949234,486.398876 C16.4355689,533.103758 62.6238326,578.558715 114.976854,572.084559 C184.877333,563.440909 205.223446,482.670551 255.737489,438.82591 C310.768604,391.061308 396.832483,391.531818 473.690217,389.769909 C550.546343,388.008 639.76735,374.014269 675.973046,313.673186 C703.200861,268.296885 688.890907,210.321221 655.643009,168.241349 C622.39511,126.160047 573.244226,96.5622685 525.215377,67.9255312 C502.080254,54.1320169 477.868106,39.9638109 450.267351,36.6588019 C422.666597,33.3552231 390.740063,44.4915731 381.596609,67.8954987" id="Fill-4" fill="#2ED76B" opacity="0.382998512" mask="url(#mask-4)"></path>
                    </g>
                </g>
                <circle id="Oval" fill="#FCEB60" opacity="0.431129092" cx="909.5" cy="706.5" r="175.5"></circle>
            </g>
        </g>
    </g>
</svg>