<?xml version="1.0" encoding="UTF-8"?>
<svg width="31px" height="30px" viewBox="0 0 31 30" version="1.1" xmlns="http://www.w3.org/2000/svg" xmlns:xlink="http://www.w3.org/1999/xlink">
    <!-- Generator: Sketch 52.5 (67469) - http://www.bohemiancoding.com/sketch -->
    <title>thumbs-up-hand-symbol</title>
    <desc>Created with Sketch.</desc>
    <defs>
        <polygon id="path-1" points="0 0 31 0 31 30 0 30"></polygon>
        <linearGradient x1="87.0886611%" y1="7.2780629%" x2="8.71538174%" y2="113.820312%" id="linearGradient-3">
            <stop stop-color="#67ADFF" offset="0%"></stop>
            <stop stop-color="#205AFB" offset="100%"></stop>
        </linearGradient>
    </defs>
    <g id="Symbols" stroke="none" stroke-width="1" fill="none" fill-rule="evenodd">
        <g id="Landing-Page---Featured" transform="translate(-289.000000, -3492.000000)">
            <g id="thumbs-up-hand-symbol" transform="translate(304.500000, 3507.000000) scale(-1, -1) translate(-304.500000, -3507.000000) translate(289.000000, 3492.000000)">
                <mask id="mask-2" fill="white">
                    <use xlink:href="#path-1"></use>
                </mask>
                <g id="Clip-2"></g>
                <path d="M29.9695616,16.6602739 C30.6562329,15.839801 31,14.8706961 31,13.7505619 C31,12.7344101 30.643863,11.8564023 29.9324521,11.113242 C29.2201781,10.3709808 28.3761507,10 27.4018082,10 L22.2081918,10 C22.2576712,9.81750622 22.3080137,9.6616823 22.3574932,9.53043061 C22.4069726,9.40067723 22.476589,9.25773876 22.5643288,9.10101585 C22.6509178,8.94519193 22.7136301,8.82832399 22.7507397,8.74981271 C22.9768493,8.30721285 23.148589,7.94222529 23.2665342,7.65664799 C23.3856301,7.36987204 23.503863,6.97881394 23.6229589,6.48377334 C23.7420548,5.98963172 23.8016027,5.49459111 23.8016027,4.99925085 C23.8016027,4.68670402 23.7981507,4.43289083 23.7915342,4.2384106 C23.7857808,4.04303137 23.7544247,3.74936322 23.6980411,3.35950376 C23.6419452,2.96844566 23.5665753,2.64301339 23.4733699,2.38320698 C23.3790137,2.12220191 23.2294247,1.82943274 23.0228767,1.50400048 C22.8171918,1.17736957 22.5666301,0.914266878 22.2732055,0.712894429 C21.9789178,0.510323335 21.6046575,0.341613976 21.1472603,0.204668724 C20.6910137,0.0677234725 20.1763699,0 19.6010274,0 C19.2750959,0 18.9943288,0.124059812 18.7572877,0.370980792 C18.5064384,0.63078721 18.294137,0.957418118 18.1189452,1.34727758 C17.9446164,1.73833568 17.8223562,2.07635372 17.7536027,2.36342932 C17.685137,2.65020527 17.6066027,3.04695694 17.518863,3.55488298 C17.4063836,4.10146534 17.3220959,4.49492074 17.266,4.73584849 C17.2099041,4.9770759 17.099726,5.29321866 16.9377671,5.68307812 C16.7749452,6.07383656 16.5816301,6.38638339 16.3558082,6.62071859 C15.9432877,7.05013335 15.313,7.83224956 14.4623562,8.9640706 C13.8499041,9.79742891 13.2184658,10.5852387 12.5689041,11.3274999 C11.9181918,12.0706602 11.4441096,12.4545264 11.1440685,12.4802973 C10.8316575,12.5060681 10.5629726,12.6394175 10.3371507,12.8806449 C10.1124795,13.1218723 10,13.4050523 10,13.7304846 L10,26.2506368 C10,26.5889545 10.1190959,26.8781277 10.356137,27.1193551 C10.5934658,27.3602829 10.8753836,27.48674 11.2001644,27.4996254 C11.6374247,27.5137095 12.625,27.7992868 14.1623151,28.3599533 C15.1254384,28.698271 15.878274,28.9559797 16.4219726,29.1315813 C16.9648082,29.3071829 17.7245479,29.4953702 18.6997534,29.6979413 C19.6740959,29.8993138 20.5742192,30 21.3989726,30 L23.8182877,30 C25.4816027,29.9742291 26.7119726,29.4663031 27.5119863,28.4771209 C28.2369178,27.5793354 28.5424247,26.4004675 28.4310959,24.9420155 C28.9178356,24.4598604 29.256137,23.8488508 29.4425479,23.1065896 C29.6548493,22.3118876 29.6548493,21.5498487 29.4425479,20.8216715 C30.0178904,20.0269695 30.2865753,19.1348776 30.2494658,18.1456954 C30.2506164,17.7279674 30.1571233,17.2341254 29.9695616,16.6602739 Z" id="Fill-1" fill="url(#linearGradient-3)" mask="url(#mask-2)"></path>
                <path d="M6.7690038,13 L1.2309962,13 C0.89787187,13 0.608416627,13.1323265 0.365286025,13.395701 C0.122155424,13.6590755 0,13.9726317 0,14.3334931 L0,27.6665069 C0,28.0273683 0.122155424,28.339646 0.365286025,28.604299 C0.609596872,28.8676735 0.89787187,29 1.2309962,29 L6.7690038,29 C7.10330838,29 7.39158337,28.8676735 7.63471397,28.604299 C7.87902482,28.339646 8,28.0273683 8,27.6665069 L8,14.3334931 C8,13.9726317 7.87902482,13.6590755 7.63471397,13.395701 C7.39158337,13.1323265 7.10330838,13 6.7690038,13 Z M4.55722347,25.9472212 C4.31409287,26.2045228 4.02611293,26.3330137 3.6929886,26.3330137 C3.34599639,26.3330137 3.05447571,26.2045228 2.81695128,25.9472212 C2.58060709,25.6915178 2.4619924,25.3754045 2.4619924,24.9998402 C2.4619924,24.6389788 2.58060709,24.326701 2.81695128,24.062048 C3.05447571,23.7986735 3.34599639,23.666347 3.6929886,23.666347 C4.02611293,23.666347 4.31409287,23.7986735 4.55722347,24.062048 C4.80153432,24.326701 4.9239848,24.6389788 4.9239848,24.9998402 C4.9239848,25.3754045 4.80153432,25.6915178 4.55722347,25.9472212 Z" id="Fill-3" fill="url(#linearGradient-3)" mask="url(#mask-2)"></path>
            </g>
        </g>
    </g>
</svg>