<?xml version="1.0" encoding="UTF-8"?>
<svg width="30px" height="29px" viewBox="0 0 30 29" version="1.1" xmlns="http://www.w3.org/2000/svg" xmlns:xlink="http://www.w3.org/1999/xlink">
    <!-- Generator: Sketch 52.5 (67469) - http://www.bohemiancoding.com/sketch -->
    <title>thumbs-up-hand-symbol</title>
    <desc>Created with Sketch.</desc>
    <defs>
        <polygon id="path-1" points="0 0 30 0 30 29 0 29"></polygon>
        <linearGradient x1="92.4424588%" y1="0%" x2="8.71538174%" y2="113.820312%" id="linearGradient-3">
            <stop stop-color="#F25D2A" offset="4.14559249%"></stop>
            <stop stop-color="#FB9020" offset="100%"></stop>
        </linearGradient>
    </defs>
    <g id="Symbols" stroke="none" stroke-width="1" fill="none" fill-rule="evenodd">
        <g id="Landing-Page---Featured" transform="translate(-893.000000, -3261.000000)">
            <g id="thumbs-up-hand-symbol" transform="translate(893.000000, 3261.000000)">
                <mask id="mask-2" fill="white">
                    <use xlink:href="#path-1"></use>
                </mask>
                <g id="Clip-2"></g>
                <path d="M28.9695616,16.1049314 C29.6562329,15.3118077 30,14.3750062 30,13.2922098 C30,12.3099298 29.643863,11.4611889 28.9324521,10.7428006 C28.2201781,10.0252814 27.3761507,9.66666667 26.4018082,9.66666667 L21.2081918,9.66666667 C21.2576712,9.49025601 21.3080137,9.33962622 21.3574932,9.21274959 C21.4069726,9.08732133 21.476589,8.94914746 21.5643288,8.79764866 C21.6509178,8.64701887 21.7136301,8.53404653 21.7507397,8.45815229 C21.9768493,8.03030575 22.148589,7.67748444 22.2665342,7.40142639 C22.3856301,7.12420964 22.503863,6.74618681 22.6229589,6.26764756 C22.7420548,5.78997733 22.8016027,5.31143807 22.8016027,4.83260915 C22.8016027,4.53048056 22.7981507,4.28512781 22.7915342,4.09713024 C22.7857808,3.90826366 22.7544247,3.62438445 22.6980411,3.2475203 C22.6419452,2.86949747 22.5665753,2.55491295 22.4733699,2.30376674 C22.3790137,2.05146185 22.2294247,1.76845165 22.0228767,1.45386713 C21.8171918,1.13812392 21.5666301,0.883791316 21.2732055,0.689131282 C20.9789178,0.493312557 20.6046575,0.330226844 20.1472603,0.197846434 C19.6910137,0.0654660234 19.1763699,0 18.6010274,0 C18.2750959,0 17.9943288,0.119924485 17.7572877,0.358614765 C17.5064384,0.60976097 17.294137,0.92550418 17.1189452,1.30236832 C16.9446164,1.68039116 16.8223562,2.00714193 16.7536027,2.28464835 C16.685137,2.56186509 16.6066027,2.94539171 16.518863,3.43638688 C16.4063836,3.96474983 16.3220959,4.34509005 16.266,4.57798687 C16.2099041,4.81117337 16.099726,5.11677804 15.9377671,5.49364218 C15.7749452,5.87137535 15.5816301,6.17350394 15.3558082,6.40002797 C14.9432877,6.8151289 14.313,7.57117457 13.4623562,8.66526825 C12.8499041,9.47084794 12.2184658,10.2323974 11.5689041,10.9499166 C10.9181918,11.6683048 10.4441096,12.0393755 10.1440685,12.0642874 C9.83165753,12.0891992 9.5629726,12.2181035 9.33715068,12.45129 C9.11247945,12.6844765 9,12.9582172 9,13.2728017 L9,25.3756156 C9,25.702656 9.11909589,25.9821901 9.35613699,26.2153766 C9.59346575,26.4482735 9.87538356,26.5705153 10.2001644,26.5829712 C10.6374247,26.5965859 11.625,26.8726439 13.1623151,27.4146215 C14.1254384,27.7416619 14.878274,27.9907804 15.4219726,28.1605286 C15.9648082,28.3302768 16.7245479,28.5121912 17.6997534,28.7080099 C18.6740959,28.90267 19.5742192,29 20.3989726,29 L22.8182877,29 C24.4816027,28.9750882 25.7119726,28.484093 26.5119863,27.5278835 C27.2369178,26.6600242 27.5424247,25.5204519 27.4310959,24.110615 C27.9178356,23.6445317 28.256137,23.0538891 28.4425479,22.3363699 C28.6548493,21.568158 28.6548493,20.8315204 28.4425479,20.1276158 C29.0178904,19.3594039 29.2865753,18.4970483 29.2494658,17.5408389 C29.2506164,17.1370352 29.1571233,16.6596546 28.9695616,16.1049314 Z" id="Fill-1" fill="url(#linearGradient-3)" mask="url(#mask-2)"></path>
                <path d="M6.7690038,12 L1.2309962,12 C0.89787187,12 0.608416627,12.1240561 0.365286025,12.3709697 C0.122155424,12.6178833 0,12.9118423 0,13.2501498 L0,25.7498502 C0,26.0881577 0.122155424,26.3809181 0.365286025,26.6290303 C0.609596872,26.8759439 0.89787187,27 1.2309962,27 L6.7690038,27 C7.10330838,27 7.39158337,26.8759439 7.63471397,26.6290303 C7.87902482,26.3809181 8,26.0881577 8,25.7498502 L8,13.2501498 C8,12.9118423 7.87902482,12.6178833 7.63471397,12.3709697 C7.39158337,12.1240561 7.10330838,12 6.7690038,12 Z M4.55722347,24.1380199 C4.31409287,24.3792401 4.02611293,24.4997003 3.6929886,24.4997003 C3.34599639,24.4997003 3.05447571,24.3792401 2.81695128,24.1380199 C2.58060709,23.898298 2.4619924,23.6019417 2.4619924,23.2498502 C2.4619924,22.9115426 2.58060709,22.6187822 2.81695128,22.37067 C3.05447571,22.1237564 3.34599639,21.9997003 3.6929886,21.9997003 C4.02611293,21.9997003 4.31409287,22.1237564 4.55722347,22.37067 C4.80153432,22.6187822 4.9239848,22.9115426 4.9239848,23.2498502 C4.9239848,23.6019417 4.80153432,23.898298 4.55722347,24.1380199 Z" id="Fill-3" fill="url(#linearGradient-3)" mask="url(#mask-2)"></path>
            </g>
        </g>
    </g>
</svg>