<?xml version="1.0" encoding="UTF-8"?>
<svg width="47px" height="47px" viewBox="0 0 47 47" version="1.1" xmlns="http://www.w3.org/2000/svg" xmlns:xlink="http://www.w3.org/1999/xlink">
    <!-- Generator: Sketch 53.1 (72631) - https://sketchapp.com -->
    <title>Group 6</title>
    <desc>Created with Sketch.</desc>
    <defs>
        <circle id="path-1" cx="23.3333333" cy="23.3333333" r="23.3333333"></circle>
    </defs>
    <g id="Symbols" stroke="none" stroke-width="1" fill="none" fill-rule="evenodd">
        <g id="Landing-Page---Featured" transform="translate(-306.000000, -4902.000000)">
            <g id="Group-6" transform="translate(306.000000, 4902.333333)">
                <mask id="mask-2" fill="white">
                    <use xlink:href="#path-1"></use>
                </mask>
                <use id="Mask" fill="#111F86" xlink:href="#path-1"></use>
                <g id="code" mask="url(#mask-2)" fill="#FFFFFF" stroke="#FFFFFF">
                    <g transform="translate(9.000000, 15.000000)">
                        <path d="M16.7168776,0.215751619 L15.9718331,0.0174845028 C15.8753592,-0.0132656722 15.7809143,-0.00343276738 15.6894209,0.0468044371 C15.5971896,0.0970416415 15.5344723,0.173201959 15.5027447,0.274570268 L11.0180897,15.3178419 C10.9863621,15.4184951 10.9963231,15.5141424 11.0483416,15.6035325 C11.1001756,15.6929225 11.1780188,15.7529926 11.2824246,15.7837428 L12.028207,15.9820099 C12.1241275,16.0134752 12.2183879,16.0036423 12.3106192,15.95269 C12.4028505,15.9024528 12.46483,15.8270076 12.4972954,15.7256393 L16.981397,0.682367647 C17.0138624,0.580999337 17.003717,0.486067111 16.951883,0.396677067 C16.8991267,0.307287024 16.8214679,0.246501794 16.7168776,0.215751619 Z" id="Fill-1"></path>
                        <path d="M7,2.99804757 C7,2.89436869 6.96032583,2.80212769 6.87950124,2.72132458 L6.27829915,2.12028226 C6.19839722,2.04040156 6.1061317,2 6.00150261,2 C5.89779617,2 5.80553066,2.04040156 5.72470607,2.12028226 L0.12031423,7.72318477 C0.040412295,7.80398789 0,7.89622888 0,7.99990776 C0,8.10450905 0.040412295,8.19675004 0.12031423,8.27663074 L5.72470607,13.8797177 C5.80553066,13.9603364 5.89705805,14 6.00150261,14 C6.1061317,14 6.19839722,13.9603364 6.27829915,13.8797177 L6.87950124,13.2794133 C6.96032583,13.1986102 7,13.1063692 7,13.0026904 C7,12.8980891 6.96032583,12.8058481 6.87950124,12.7259674 L2.15310803,7.99990776 L6.87950124,3.27477055 C6.96032583,3.19488985 7,3.10264885 7,2.99804757 Z" id="Fill-3"></path>
                        <path d="M27.8804081,7.72318477 L22.2745393,2.12028226 C22.1944422,2.04040156 22.1021646,2 21.9984445,2 C21.8939861,2 21.8017085,2.04040156 21.7216114,2.12028226 L21.1203301,2.72132458 C21.0396794,2.80138976 21,2.89363076 21,2.99804757 C21,3.10264885 21.0396794,3.19488985 21.1203301,3.27477055 L25.8473464,7.99990776 L21.1203301,12.7259674 C21.0396794,12.8058481 21,12.8980891 21,13.0026904 C21,13.1063692 21.0396794,13.1986102 21.1203301,13.2794133 L21.7216114,13.8797177 C21.8017085,13.9603364 21.8939861,14 21.9984445,14 C22.1021646,14 22.1944422,13.9603364 22.2745393,13.8797177 L27.8804081,8.27663074 C27.9605052,8.19675004 28,8.10450905 28,7.99990776 C28,7.89549095 27.9605052,7.80324996 27.8804081,7.72318477 Z" id="Fill-4"></path>
                    </g>
                </g>
            </g>
        </g>
    </g>
</svg>