<?xml version="1.0" encoding="utf-8"?>
<!-- Generator: Adobe Illustrator 22.1.0, SVG Export Plug-In . SVG Version: 6.00 Build 0)  -->
<svg version="1.1" xmlns="http://www.w3.org/2000/svg" xmlns:xlink="http://www.w3.org/1999/xlink" x="0px" y="0px"
	 viewBox="0 0 69.9 98.8" style="enable-background:new 0 0 69.9 98.8;" xml:space="preserve">
<style type="text/css">
	.st0{fill:url(#SVGID_1_);}
	.st1{fill:url(#SVGID_2_);}
	.st2{fill:url(#SVGID_3_);}
	.st3{fill:url(#SVGID_4_);}
	.st4{fill:#FFFFFF;}
	.st5{fill:url(#SVGID_5_);}
	.st6{fill:#334E70;}
	.st7{fill:none;stroke:#334E70;stroke-width:1.2443;stroke-miterlimit:10;}
	.st8{fill:url(#SVGID_6_);}
	.st9{fill:url(#SVGID_7_);}
	.st10{fill:url(#SVGID_8_);}
	.st11{fill:url(#SVGID_9_);}
	.st12{fill:#FF0000;}
	.st13{fill:url(#SVGID_10_);}
	.st14{fill:url(#SVGID_11_);}
	.st15{fill:url(#SVGID_12_);}
	.st16{fill:url(#SVGID_13_);}
	.st17{fill:url(#SVGID_14_);}
	.st18{fill:url(#SVGID_15_);}
	.st19{fill:none;stroke:#334E70;stroke-width:0.5;stroke-miterlimit:10;}
	.st20{fill:url(#SVGID_16_);}
	.st21{fill:url(#SVGID_17_);}
	.st22{fill:url(#SVGID_18_);}
	.st23{fill:url(#SVGID_19_);}
	.st24{fill:#FF6464;}
	.st25{fill:#606060;}
</style>
<g id="Layer_12">
</g>
<g id="Layer_8">
	<g>
		<g>
			
				<radialGradient id="SVGID_1_" cx="-24.2498" cy="35.1381" r="1.477810e-02" gradientTransform="matrix(0.9999 -1.190971e-02 1.190971e-02 0.9999 54.0351 24.6038)" gradientUnits="userSpaceOnUse">
				<stop  offset="1.198948e-03" style="stop-color:#333333"/>
				<stop  offset="0.2681" style="stop-color:#2E2E2E"/>
				<stop  offset="0.5667" style="stop-color:#212121"/>
				<stop  offset="0.8795" style="stop-color:#0B0B0B"/>
				<stop  offset="1" style="stop-color:#000000"/>
			</radialGradient>
			<path class="st0" d="M30.2,60C30.2,60,30.2,60,30.2,60C30.2,60,30.2,60,30.2,60z"/>
		</g>
		<g>
			
				<radialGradient id="SVGID_2_" cx="8.0404" cy="-28.2781" r="0.1996" gradientTransform="matrix(0.9999 -1.301809e-02 1.301809e-02 0.9999 14.2693 28.4708)" gradientUnits="userSpaceOnUse">
				<stop  offset="1.198948e-03" style="stop-color:#333333"/>
				<stop  offset="0.2681" style="stop-color:#2E2E2E"/>
				<stop  offset="0.5667" style="stop-color:#212121"/>
				<stop  offset="0.8795" style="stop-color:#0B0B0B"/>
				<stop  offset="1" style="stop-color:#000000"/>
			</radialGradient>
			<path class="st1" d="M21.6,0.2C21.8,0.1,22,0.1,22.2,0C22,0.1,21.8,0.1,21.6,0.2z"/>
		</g>
		<g>
			
				<radialGradient id="SVGID_3_" cx="-5.2971" cy="80.2469" r="1.428781e-02" gradientTransform="matrix(0.9999 1.262036e-02 -1.262036e-02 0.9999 26.8182 -12.719)" gradientUnits="userSpaceOnUse">
				<stop  offset="1.198948e-03" style="stop-color:#333333"/>
				<stop  offset="0.2681" style="stop-color:#2E2E2E"/>
				<stop  offset="0.5667" style="stop-color:#212121"/>
				<stop  offset="0.8795" style="stop-color:#0B0B0B"/>
				<stop  offset="1" style="stop-color:#000000"/>
			</radialGradient>
			<path class="st2" d="M20.5,67.5C20.5,67.5,20.5,67.5,20.5,67.5C20.5,67.5,20.5,67.5,20.5,67.5z"/>
		</g>
		<linearGradient id="SVGID_4_" gradientUnits="userSpaceOnUse" x1="78.9725" y1="2.8254" x2="10.3634" y2="60.4394">
			<stop  offset="0" style="stop-color:#6ABEFF"/>
			<stop  offset="0.202" style="stop-color:#67B9FF"/>
			<stop  offset="0.428" style="stop-color:#5EACFF"/>
			<stop  offset="0.6656" style="stop-color:#5096FF"/>
			<stop  offset="0.9097" style="stop-color:#3C76FF"/>
			<stop  offset="1" style="stop-color:#3369FF"/>
		</linearGradient>
		<path class="st3" d="M69.8,33.2L69.8,33.2L69.8,33.2C69.1,15.1,52.2,1.1,32.3,2.5C14.6,3.8,0.5,17.5,0,33.9
			c-0.2,8.5,3.1,16.2,8.7,22c6,6.2,11.4,12.9,15.9,20.2l2.1,3.4l19.9-0.7l1.7-3.3c3.9-7.6,8.8-14.7,14.4-21.4
			C67.4,48.2,70.1,41,69.8,33.2z"/>
		<path class="st4" d="M62.1,33.5L62.1,33.5L62.1,33.5c-0.7-18.1-14-32.3-29.4-31C18.8,3.7,8,17.2,7.8,33.6
			c-0.1,8.5,2.5,16.2,6.9,22.1c4.7,6.3,9,13,12.5,20.3l1.6,3.4l15.5-0.6l1.3-3.3c3-7.6,6.7-14.7,11-21.3
			C60.3,48.4,62.4,41.2,62.1,33.5z"/>
		<linearGradient id="SVGID_5_" gradientUnits="userSpaceOnUse" x1="79.8057" y1="3.8178" x2="11.1967" y2="61.4318">
			<stop  offset="0" style="stop-color:#6ABEFF"/>
			<stop  offset="0.202" style="stop-color:#67B9FF"/>
			<stop  offset="0.428" style="stop-color:#5EACFF"/>
			<stop  offset="0.6656" style="stop-color:#5096FF"/>
			<stop  offset="0.9097" style="stop-color:#3C76FF"/>
			<stop  offset="1" style="stop-color:#3369FF"/>
		</linearGradient>
		<path class="st5" d="M52.4,33.9L52.4,33.9L52.4,33.9C51.7,15.7,43,1.4,33,2.5c-8.9,1-15.7,14.4-15.6,30.7c0,8.5,1.9,16.3,4.8,22.2
			c3.1,6.3,6,13.1,8.3,20.4l1.1,3.4l10-0.4l0.8-3.3c1.8-7.5,4.1-14.6,6.8-21.1C51.5,48.8,52.7,41.6,52.4,33.9z"/>
		<path class="st4" d="M42.2,34.2L42.2,34.2L42.2,34.2c-0.7-18.1-4.6-32.6-8.7-31.8c-3.7,0.8-6.2,14-5.8,30.3
			c0.2,8.5,1.1,16.3,2.5,22.2c1.4,6.4,2.8,13.2,3.9,20.6l0.5,3.4l4.1-0.2l0.3-3.3c0.6-7.5,1.4-14.5,2.4-21
			C42.1,49.1,42.5,42,42.2,34.2z"/>
		<path class="st6" d="M46.6,78.6c0,0.7-4.4,1.4-9.9,1.6c-5.5,0.2-10-0.2-10-0.9c0-0.7,4.4-1.4,9.9-1.6
			C42.1,77.6,46.5,77.9,46.6,78.6z"/>
		<g>
			<line class="st7" x1="27.3" y1="79.4" x2="29.5" y2="89.2"/>
			<line class="st7" x1="32.3" y1="79.2" x2="31.2" y2="89.1"/>
		</g>
		<g>
			<line class="st7" x1="45.9" y1="78.7" x2="44.4" y2="88.6"/>
			<line class="st7" x1="41.4" y1="78.8" x2="40.5" y2="88.8"/>
		</g>
		<linearGradient id="SVGID_6_" gradientUnits="userSpaceOnUse" x1="20.5292" y1="94.0112" x2="37.9141" y2="93.1041">
			<stop  offset="1.198948e-03" style="stop-color:#CCCCCC"/>
			<stop  offset="0.133" style="stop-color:#C9C8C7"/>
			<stop  offset="0.2805" style="stop-color:#C1BEBA"/>
			<stop  offset="0.4356" style="stop-color:#B4ACA3"/>
			<stop  offset="0.5961" style="stop-color:#A29284"/>
			<stop  offset="0.7607" style="stop-color:#8A725C"/>
			<stop  offset="0.9264" style="stop-color:#6E4B2B"/>
			<stop  offset="1" style="stop-color:#603813"/>
		</linearGradient>
		<path class="st8" d="M30.1,88.2l13.5-0.7c1.2-0.1,2.2,0.9,2.1,2.1L45,96.3c-0.1,0.9-0.9,1.7-1.8,1.7l-11.5,0.7
			c-1,0.1-1.9-0.6-2.1-1.6l-1.3-6.8C28.1,89.3,28.9,88.2,30.1,88.2z"/>
	</g>
</g>
<g id="Layer_13">
</g>
<g id="Layer_7">
</g>
<g id="Layer_6">
</g>
<g id="Layer_11">
</g>
<g id="Layer_9">
</g>
<g id="Layer_10">
</g>
<g id="Layer_5">
</g>
<g id="Layer_4">
	<g>
		<path class="st4" d="M2657.9-352.6c-5.2-81-103.9-98.7-152.4-73.1c-84.6,44.7-145.6,100-243.7,125.6
			C2066.8-249,1786-257.4,1641-419.1c-38.9-43.4-41.1-70.4-101.8-96.3c-53.4-22.9-102.9-28.8-153.1-62.6
			c-98.1-65.9-164.3-175.8-172.8-294c-7.7-106.9,32.8-220.3,106.4-299.1c41.7-44.6,177.9-109.5,90.3-148.2
			c-84.2-37.2-234.8,25.8-322.4,37.5c-149.6,19.9-302,41.5-452.8,49.3c-78.7,4.1-206.1-17.5-233.9,73.7
			c-14.2,46.6,25.4,148.2,32.7,193.6c14.3,88.3,28.6,176.6,42.8,264.9c46.9,289.9,85.2,581.7,131,871.2
			c18.4,116.3,70.9,129.1,183,113c120.7-17.3,240.1-41.2,361.3-57.3c373.4-49.3,746.8-98.6,1120.1-147.9
			c88.6-11.7,177-24.7,265.8-35.1c43.1-5.1,106.9,3.8,133.9-38.3c22.4-35-4.5-108.7-8.1-146.1
			C2656.6-211.3,2662.4-281.9,2657.9-352.6z"/>
	</g>
	<g>
		<g>
			
				<radialGradient id="SVGID_7_" cx="-132.4027" cy="121.7864" r="1.680087e-02" gradientTransform="matrix(0.9999 -1.190971e-02 1.190971e-02 0.9999 54.0351 24.6038)" gradientUnits="userSpaceOnUse">
				<stop  offset="1.198948e-03" style="stop-color:#333333"/>
				<stop  offset="0.2681" style="stop-color:#2E2E2E"/>
				<stop  offset="0.5667" style="stop-color:#212121"/>
				<stop  offset="0.8795" style="stop-color:#0B0B0B"/>
				<stop  offset="1" style="stop-color:#000000"/>
			</radialGradient>
			<path class="st9" d="M-76.9,148C-76.9,148-76.9,148-76.9,148C-76.9,148-76.9,148-76.9,148z"/>
		</g>
		<g>
			
				<radialGradient id="SVGID_8_" cx="-101.2329" cy="50.0321" r="0.2269" gradientTransform="matrix(0.9999 -1.301809e-02 1.301809e-02 0.9999 14.2693 28.4708)" gradientUnits="userSpaceOnUse">
				<stop  offset="1.198948e-03" style="stop-color:#333333"/>
				<stop  offset="0.2681" style="stop-color:#2E2E2E"/>
				<stop  offset="0.5667" style="stop-color:#212121"/>
				<stop  offset="0.8795" style="stop-color:#0B0B0B"/>
				<stop  offset="1" style="stop-color:#000000"/>
			</radialGradient>
			<path class="st10" d="M-86.7,80c0.2-0.1,0.5-0.2,0.7-0.2C-86.2,79.8-86.5,79.9-86.7,80z"/>
		</g>
		<g>
			
				<radialGradient id="SVGID_9_" cx="-112.6065" cy="170.5551" r="1.624348e-02" gradientTransform="matrix(0.9999 1.262036e-02 -1.262036e-02 0.9999 26.8182 -12.719)" gradientUnits="userSpaceOnUse">
				<stop  offset="1.198948e-03" style="stop-color:#333333"/>
				<stop  offset="0.2681" style="stop-color:#2E2E2E"/>
				<stop  offset="0.5667" style="stop-color:#212121"/>
				<stop  offset="0.8795" style="stop-color:#0B0B0B"/>
				<stop  offset="1" style="stop-color:#000000"/>
			</radialGradient>
			<path class="st11" d="M-87.9,156.4C-87.9,156.4-87.9,156.4-87.9,156.4C-87.9,156.4-87.9,156.4-87.9,156.4z"/>
		</g>
		<path class="st12" d="M-31.9,117.5L-31.9,117.5L-31.9,117.5c-0.8-20.6-20-36.6-42.7-34.9c-20.2,1.5-36.2,17-36.7,35.6
			c-0.3,9.7,3.5,18.4,9.9,25c6.8,7.1,13,14.7,18,22.9l2.3,3.8l22.6-0.9l1.9-3.8c4.4-8.7,10-16.8,16.3-24.4
			C-34.6,134.5-31.5,126.3-31.9,117.5z"/>
		<path class="st4" d="M-40.7,117.8L-40.7,117.8L-40.7,117.8c-0.8-20.6-15.9-36.7-33.5-35.2c-15.7,1.3-28,16.7-28.3,35.3
			c-0.1,9.7,2.9,18.5,7.9,25.1c5.4,7.1,10.2,14.8,14.2,23.1l1.9,3.8l17.6-0.7l1.5-3.8c3.4-8.6,7.6-16.7,12.5-24.2
			C-42.7,134.8-40.4,126.6-40.7,117.8z"/>
		<path class="st12" d="M-51.6,118.2L-51.6,118.2L-51.6,118.2c-0.8-20.6-10.7-36.9-22.1-35.7c-10.1,1.1-17.9,16.3-17.8,34.9
			c0,9.7,2.1,18.5,5.4,25.2c3.6,7.2,6.8,14.9,9.5,23.2l1.2,3.9l11.4-0.4l0.9-3.7c2.1-8.6,4.7-16.6,7.7-24
			C-52.7,135.1-51.3,127-51.6,118.2z"/>
		<path class="st4" d="M-63.3,118.6L-63.3,118.6L-63.3,118.6c-0.8-20.6-5.3-37.1-9.9-36.1c-4.2,0.9-7.1,15.9-6.6,34.5
			c0.2,9.7,1.3,18.5,2.8,25.3c1.6,7.3,3.1,15,4.4,23.4l0.6,3.9l4.7-0.2l0.3-3.7c0.7-8.5,1.6-16.4,2.7-23.8
			C-63.4,135.5-63,127.5-63.3,118.6z"/>
		<path class="st6" d="M-58.3,169.1c0,0.8-5,1.6-11.3,1.9c-6.3,0.2-11.3-0.2-11.4-1c0-0.8,5-1.6,11.3-1.9S-58.3,168.3-58.3,169.1z"
			/>
		<g>
			<line class="st7" x1="-80.3" y1="169.9" x2="-77.7" y2="181.1"/>
			<line class="st7" x1="-74.5" y1="169.7" x2="-75.8" y2="181"/>
		</g>
		<g>
			<line class="st7" x1="-59" y1="169.1" x2="-60.7" y2="180.5"/>
			<line class="st7" x1="-64.2" y1="169.3" x2="-65.2" y2="180.7"/>
		</g>
		<linearGradient id="SVGID_10_" gradientUnits="userSpaceOnUse" x1="-87.9086" y1="186.5928" x2="-68.144" y2="185.5616">
			<stop  offset="1.198948e-03" style="stop-color:#CCCCCC"/>
			<stop  offset="0.133" style="stop-color:#C9C8C7"/>
			<stop  offset="0.2805" style="stop-color:#C1BEBA"/>
			<stop  offset="0.4356" style="stop-color:#B4ACA3"/>
			<stop  offset="0.5961" style="stop-color:#A29284"/>
			<stop  offset="0.7607" style="stop-color:#8A725C"/>
			<stop  offset="0.9264" style="stop-color:#6E4B2B"/>
			<stop  offset="1" style="stop-color:#603813"/>
		</linearGradient>
		<path class="st13" d="M-77,180l15.3-0.8c1.4-0.1,2.5,1,2.4,2.4l-0.7,7.7c-0.1,1.1-1,1.9-2.1,2l-13.1,0.8c-1.1,0.1-2.2-0.7-2.4-1.8
			l-1.5-7.7C-79.4,181.2-78.4,180-77,180z"/>
	</g>
	<g>
		<g>
			
				<radialGradient id="SVGID_11_" cx="-261.157" cy="-161.6112" r="8.653359e-03" gradientTransform="matrix(0.9999 -1.190971e-02 1.190971e-02 0.9999 54.0351 24.6038)" gradientUnits="userSpaceOnUse">
				<stop  offset="1.198948e-03" style="stop-color:#333333"/>
				<stop  offset="0.2681" style="stop-color:#2E2E2E"/>
				<stop  offset="0.5667" style="stop-color:#212121"/>
				<stop  offset="0.8795" style="stop-color:#0B0B0B"/>
				<stop  offset="1" style="stop-color:#000000"/>
			</radialGradient>
			<path class="st14" d="M-209-133.9C-209-133.9-209-133.9-209-133.9C-209-133.9-209-133.9-209-133.9z"/>
		</g>
		<g>
			
				<radialGradient id="SVGID_12_" cx="-225.547" cy="-200.4064" r="0.1169" gradientTransform="matrix(0.9999 -1.301809e-02 1.301809e-02 0.9999 14.2693 28.4708)" gradientUnits="userSpaceOnUse">
				<stop  offset="1.198948e-03" style="stop-color:#333333"/>
				<stop  offset="0.2681" style="stop-color:#2E2E2E"/>
				<stop  offset="0.5667" style="stop-color:#212121"/>
				<stop  offset="0.8795" style="stop-color:#0B0B0B"/>
				<stop  offset="1" style="stop-color:#000000"/>
			</radialGradient>
			<path class="st15" d="M-214.1-168.9c0.1,0,0.3-0.1,0.4-0.1C-213.8-169-214-169-214.1-168.9z"/>
		</g>
		<g>
			
				<radialGradient id="SVGID_13_" cx="-242.9793" cy="-113.7607" r="8.366274e-03" gradientTransform="matrix(0.9999 1.262036e-02 -1.262036e-02 0.9999 26.8182 -12.719)" gradientUnits="userSpaceOnUse">
				<stop  offset="1.198948e-03" style="stop-color:#333333"/>
				<stop  offset="0.2681" style="stop-color:#2E2E2E"/>
				<stop  offset="0.5667" style="stop-color:#212121"/>
				<stop  offset="0.8795" style="stop-color:#0B0B0B"/>
				<stop  offset="1" style="stop-color:#000000"/>
			</radialGradient>
			<path class="st16" d="M-214.7-129.5C-214.7-129.5-214.7-129.5-214.7-129.5C-214.7-129.5-214.7-129.5-214.7-129.5z"/>
		</g>
		<linearGradient id="SVGID_14_" gradientUnits="userSpaceOnUse" x1="-180.4724" y1="-167.3809" x2="-220.6467" y2="-133.6449">
			<stop  offset="7.942073e-02" style="stop-color:#61FFFB"/>
			<stop  offset="0.4626" style="stop-color:#45DDD5"/>
			<stop  offset="0.7995" style="stop-color:#31C5BB"/>
			<stop  offset="0.9988" style="stop-color:#2ABCB1"/>
		</linearGradient>
		<path class="st17" d="M-185.8-149.6L-185.8-149.6L-185.8-149.6c-0.4-10.6-10.3-18.8-22-18c-10.4,0.8-18.7,8.8-18.9,18.3
			c-0.1,5,1.8,9.5,5.1,12.9c3.5,3.6,6.7,7.6,9.3,11.8l1.2,2l11.7-0.4l1-1.9c2.3-4.5,5.2-8.6,8.4-12.5
			C-187.2-140.8-185.7-145.1-185.8-149.6z"/>
		<path class="st4" d="M-190.4-149.4L-190.4-149.4L-190.4-149.4c-0.4-10.6-8.2-18.9-17.2-18.1c-8.1,0.7-14.4,8.6-14.6,18.2
			c-0.1,5,1.5,9.5,4.1,12.9c2.8,3.7,5.3,7.6,7.3,11.9l1,2l9.1-0.3l0.8-1.9c1.7-4.4,3.9-8.6,6.4-12.5
			C-191.4-140.7-190.2-144.9-190.4-149.4z"/>
		<linearGradient id="SVGID_15_" gradientUnits="userSpaceOnUse" x1="-179.9845" y1="-166.7999" x2="-220.1587" y2="-133.0638">
			<stop  offset="7.942073e-02" style="stop-color:#61FFFB"/>
			<stop  offset="0.4626" style="stop-color:#45DDD5"/>
			<stop  offset="0.7995" style="stop-color:#31C5BB"/>
			<stop  offset="0.9988" style="stop-color:#2ABCB1"/>
		</linearGradient>
		<path class="st18" d="M-196-149.2L-196-149.2L-196-149.2c-0.4-10.6-5.5-19-11.4-18.4c-5.2,0.6-9.2,8.4-9.2,18c0,5,1.1,9.5,2.8,13
			c1.8,3.7,3.5,7.7,4.9,12l0.6,2l5.8-0.2l0.5-1.9c1.1-4.4,2.4-8.5,4-12.4C-196.6-140.5-195.8-144.7-196-149.2z"/>
		<path class="st4" d="M-202-149L-202-149L-202-149c-0.4-10.6-2.7-19.1-5.1-18.6c-2.1,0.5-3.6,8.2-3.4,17.8c0.1,5,0.7,9.5,1.4,13
			c0.8,3.7,1.6,7.7,2.3,12.1l0.3,2l2.4-0.1l0.2-1.9c0.3-4.4,0.8-8.5,1.4-12.3C-202.1-140.3-201.9-144.4-202-149z"/>
		<path class="st6" d="M-199.5-123c0,0.4-2.6,0.8-5.8,1c-3.2,0.1-5.8-0.1-5.9-0.5c0-0.4,2.6-0.8,5.8-1
			C-202.1-123.6-199.5-123.4-199.5-123z"/>
		<g>
			<line class="st19" x1="-210.8" y1="-122.6" x2="-209.4" y2="-116.8"/>
			<line class="st19" x1="-208.1" y1="-122.7" x2="-207.1" y2="-116.9"/>
		</g>
		<g>
			<line class="st19" x1="-199.8" y1="-123" x2="-200.7" y2="-117.1"/>
		</g>
		<linearGradient id="SVGID_16_" gradientUnits="userSpaceOnUse" x1="-214.6845" y1="-113.5293" x2="-204.5058" y2="-114.0604">
			<stop  offset="1.198948e-03" style="stop-color:#CCCCCC"/>
			<stop  offset="0.133" style="stop-color:#C9C8C7"/>
			<stop  offset="0.2805" style="stop-color:#C1BEBA"/>
			<stop  offset="0.4356" style="stop-color:#B4ACA3"/>
			<stop  offset="0.5961" style="stop-color:#A29284"/>
			<stop  offset="0.7607" style="stop-color:#8A725C"/>
			<stop  offset="0.9264" style="stop-color:#6E4B2B"/>
			<stop  offset="1" style="stop-color:#603813"/>
		</linearGradient>
		<path class="st20" d="M-209.1-116.9l7.9-0.4c0.7,0,1.3,0.5,1.2,1.2l-0.4,4c-0.1,0.5-0.5,1-1.1,1l-6.8,0.4c-0.6,0-1.1-0.4-1.2-0.9
			l-0.7-4C-210.3-116.3-209.8-116.9-209.1-116.9z"/>
	</g>
	<g>
		<g>
			
				<radialGradient id="SVGID_17_" cx="-109.87" cy="-59.7299" r="8.908095e-03" gradientTransform="matrix(0.9999 -1.190971e-02 1.190971e-02 0.9999 54.0351 24.6038)" gradientUnits="userSpaceOnUse">
				<stop  offset="1.198948e-03" style="stop-color:#333333"/>
				<stop  offset="0.2681" style="stop-color:#2E2E2E"/>
				<stop  offset="0.5667" style="stop-color:#212121"/>
				<stop  offset="0.8795" style="stop-color:#0B0B0B"/>
				<stop  offset="1" style="stop-color:#000000"/>
			</radialGradient>
			<path class="st21" d="M-56.5-33.8C-56.5-33.8-56.5-33.8-56.5-33.8C-56.5-33.8-56.5-33.8-56.5-33.8z"/>
		</g>
		<g>
			
				<radialGradient id="SVGID_18_" cx="-74.502" cy="-99.3923" r="0.1203" gradientTransform="matrix(0.9999 -1.301809e-02 1.301809e-02 0.9999 14.2693 28.4708)" gradientUnits="userSpaceOnUse">
				<stop  offset="1.198948e-03" style="stop-color:#333333"/>
				<stop  offset="0.2681" style="stop-color:#2E2E2E"/>
				<stop  offset="0.5667" style="stop-color:#212121"/>
				<stop  offset="0.8795" style="stop-color:#0B0B0B"/>
				<stop  offset="1" style="stop-color:#000000"/>
			</radialGradient>
			<path class="st22" d="M-61.8-69.9c0.1,0,0.3-0.1,0.4-0.1C-61.5-70-61.6-69.9-61.8-69.9z"/>
		</g>
		<g>
			
				<radialGradient id="SVGID_19_" cx="-89.4044" cy="-15.4906" r="8.612558e-03" gradientTransform="matrix(0.9999 1.262036e-02 -1.262036e-02 0.9999 26.8182 -12.719)" gradientUnits="userSpaceOnUse">
				<stop  offset="1.198948e-03" style="stop-color:#333333"/>
				<stop  offset="0.2681" style="stop-color:#2E2E2E"/>
				<stop  offset="0.5667" style="stop-color:#212121"/>
				<stop  offset="0.8795" style="stop-color:#0B0B0B"/>
				<stop  offset="1" style="stop-color:#000000"/>
			</radialGradient>
			<path class="st23" d="M-62.4-29.3C-62.4-29.3-62.4-29.3-62.4-29.3C-62.4-29.3-62.4-29.3-62.4-29.3z"/>
		</g>
		<path class="st24" d="M-32.7-50L-32.7-50L-32.7-50c-0.4-10.9-10.6-19.4-22.6-18.5c-10.7,0.8-19.2,9-19.5,18.9
			c-0.1,5.1,1.9,9.8,5.2,13.3c3.6,3.8,6.9,7.8,9.6,12.1l1.2,2l12-0.5l1-2c2.4-4.6,5.3-8.9,8.7-12.9C-34.1-41-32.5-45.3-32.7-50z"/>
		<path class="st4" d="M-37.3-49.8L-37.3-49.8L-37.3-49.8c-0.4-10.9-8.4-19.5-17.7-18.7c-8.3,0.7-14.9,8.9-15,18.7
			c-0.1,5.1,1.5,9.8,4.2,13.3c2.8,3.8,5.4,7.8,7.5,12.2l1,2l9.3-0.4l0.8-2c1.8-4.6,4.1-8.8,6.6-12.8C-38.4-40.8-37.2-45.1-37.3-49.8
			z"/>
		<path class="st24" d="M-43.1-49.6L-43.1-49.6L-43.1-49.6c-0.4-10.9-5.7-19.6-11.7-18.9c-5.4,0.6-9.5,8.7-9.4,18.5
			c0,5.1,1.1,9.8,2.9,13.4c1.9,3.8,3.6,7.9,5,12.3l0.7,2.1l6-0.2l0.5-2c1.1-4.5,2.5-8.8,4.1-12.7C-43.7-40.6-43-44.9-43.1-49.6z"/>
		<path class="st4" d="M-49.3-49.4L-49.3-49.4L-49.3-49.4c-0.4-10.9-2.8-19.7-5.3-19.1c-2.2,0.5-3.7,8.4-3.5,18.3
			c0.1,5.1,0.7,9.8,1.5,13.4c0.9,3.9,1.7,8,2.4,12.4l0.3,2.1l2.5-0.1l0.2-2c0.4-4.5,0.8-8.7,1.4-12.6
			C-49.4-40.4-49.2-44.7-49.3-49.4z"/>
		<path class="st6" d="M-46.7-22.6c0,0.4-2.7,0.9-6,1c-3.3,0.1-6-0.1-6-0.5c0-0.4,2.7-0.9,6-1C-49.4-23.3-46.7-23-46.7-22.6z"/>
		<g>
			<line class="st19" x1="-58.3" y1="-22.2" x2="-57" y2="-16.2"/>
			<line class="st19" x1="-55.6" y1="-22.3" x2="-54.6" y2="-16.3"/>
		</g>
		<g>
			<line class="st19" x1="-47.1" y1="-22.6" x2="-48" y2="-16.6"/>
		</g>
		<path d="M-56.6-16.4l8.1-0.4c0.7,0,1.3,0.6,1.3,1.3l-0.4,4.1c-0.1,0.6-0.5,1-1.1,1l-7,0.4c-0.6,0-1.1-0.4-1.3-0.9l-0.8-4.1
			C-57.8-15.7-57.3-16.3-56.6-16.4z"/>
	</g>
</g>
<g id="Layer_14">
</g>
<g id="Layer_3">
</g>
<g id="Layer_1">
	<rect x="2391.9" y="-1564" class="st25" width="983" height="1852"/>
	<g id="Layer_2">
	</g>
	<polyline class="st25" points="2712.9,-1685.3 2712.9,-1270 266.9,-1270 266.9,-3122 2712.9,-3122 2712.9,-1685.3 	"/>
</g>
<g id="Layer_15">
</g>
</svg>
