<?xml version="1.0" encoding="UTF-8"?>
<svg width="29px" height="31px" viewBox="0 0 29 31" version="1.1" xmlns="http://www.w3.org/2000/svg" xmlns:xlink="http://www.w3.org/1999/xlink">
    <!-- Generator: Sketch 52.5 (67469) - http://www.bohemiancoding.com/sketch -->
    <title>love</title>
    <desc>Created with Sketch.</desc>
    <defs>
        <polygon id="path-1" points="0.00338795195 5.74923637e-05 28.3083713 5.74923637e-05 28.3083713 29.4360646 0.00338795195 29.4360646"></polygon>
        <linearGradient x1="92.4424588%" y1="0%" x2="8.71538174%" y2="113.820312%" id="linearGradient-3">
            <stop stop-color="#F25D2A" offset="4.14559249%"></stop>
            <stop stop-color="#FB9020" offset="100%"></stop>
        </linearGradient>
    </defs>
    <g id="Symbols" stroke="none" stroke-width="1" fill="none" fill-rule="evenodd">
        <g id="Landing-Page---Featured" transform="translate(-362.000000, -2707.000000)">
            <g id="Group-31" transform="translate(314.000000, 2637.000000)">
                <g id="love" transform="translate(62.142857, 85.582707) scale(-1, 1) translate(-62.142857, -85.582707) translate(47.969925, 70.864662)">
                    <g id="Group-4">
                        <mask id="mask-2" fill="white">
                            <use xlink:href="#path-1"></use>
                        </mask>
                        <g id="Clip-2"></g>
                        <path d="M22.9860682,5.74923637e-05 L5.32230312,5.74923637e-05 C2.38285954,5.74923637e-05 0,2.42629273 0,5.41911522 L0,17.2149385 C0,20.2078759 2.38291601,22.6340537 5.32230312,22.6340537 L7.8572817,22.6340537 C7.97789279,22.6340537 8.0756352,22.7335155 8.0756352,22.8563767 L8.0756352,28.6750063 C8.0756352,29.3629599 8.90212608,29.6965306 9.36497678,29.1953122 L15.3610306,22.7041369 C15.4023072,22.6594078 15.4598459,22.6341112 15.520095,22.6341112 L22.9860682,22.6341112 C25.9255118,22.6341112 28.3083713,20.2078759 28.3083713,17.214996 L28.3083713,5.41911522 C28.3083713,2.42629273 25.9254553,5.74923637e-05 22.9860682,5.74923637e-05" id="Fill-1" fill="url(#linearGradient-3)" mask="url(#mask-2)"></path>
                    </g>
                    <path d="M19.6873804,6.48986273 C18.3181733,5.10488285 16.0982396,5.10488285 14.7290326,6.48986273 L13.9555458,7.27220187 C13.7711998,7.45872939 13.4721381,7.45872939 13.2877349,7.27220187 L12.5266638,6.50236349 C11.1574567,5.11738361 8.93752296,5.11738361 7.56825868,6.50236349 C6.19905162,7.88740124 6.19905162,10.1329079 7.56825868,11.5178877 L13.2881926,17.3037134 C13.4725958,17.4902409 13.7716575,17.4902409 13.9560608,17.3037134 L19.6873804,11.505387 C21.0565875,10.1203492 21.0565875,7.87490048 19.6873804,6.48986273" id="Fill-5" fill="#FFFFFF"></path>
                </g>
            </g>
        </g>
    </g>
</svg>