<?xml version="1.0" encoding="utf-8"?>
<!-- Generator: Adobe Illustrator 22.1.0, SVG Export Plug-In . SVG Version: 6.00 Build 0)  -->
<svg version="1.1" xmlns="http://www.w3.org/2000/svg" xmlns:xlink="http://www.w3.org/1999/xlink" x="0px" y="0px"
	 viewBox="0 0 40.9 58.3" style="enable-background:new 0 0 40.9 58.3;" xml:space="preserve">
<style type="text/css">
	.st0{fill:url(#SVGID_1_);}
	.st1{fill:url(#SVGID_2_);}
	.st2{fill:url(#SVGID_3_);}
	.st3{fill:url(#SVGID_4_);}
	.st4{fill:#FFFFFF;}
	.st5{fill:url(#SVGID_5_);}
	.st6{fill:#334E70;}
	.st7{fill:none;stroke:#334E70;stroke-width:1.2443;stroke-miterlimit:10;}
	.st8{fill:url(#SVGID_6_);}
	.st9{fill:url(#SVGID_7_);}
	.st10{fill:url(#SVGID_8_);}
	.st11{fill:url(#SVGID_9_);}
	.st12{fill:#FF0000;}
	.st13{fill:url(#SVGID_10_);}
	.st14{fill:url(#SVGID_11_);}
	.st15{fill:url(#SVGID_12_);}
	.st16{fill:url(#SVGID_13_);}
	.st17{fill:url(#SVGID_14_);}
	.st18{fill:url(#SVGID_15_);}
	.st19{fill:none;stroke:#334E70;stroke-width:0.5;stroke-miterlimit:10;}
	.st20{fill:url(#SVGID_16_);}
	.st21{fill:url(#SVGID_17_);}
	.st22{fill:url(#SVGID_18_);}
	.st23{fill:url(#SVGID_19_);}
	.st24{fill:#FF6464;}
	.st25{fill:#606060;}
</style>
<g id="Layer_12">
</g>
<g id="Layer_8">
	<g>
		<g>
			
				<radialGradient id="SVGID_1_" cx="201.4652" cy="203.1734" r="1.477810e-02" gradientTransform="matrix(0.9999 -1.190971e-02 1.190971e-02 0.9999 52.0499 27.3039)" gradientUnits="userSpaceOnUse">
				<stop  offset="1.198948e-03" style="stop-color:#333333"/>
				<stop  offset="0.2681" style="stop-color:#2E2E2E"/>
				<stop  offset="0.5667" style="stop-color:#212121"/>
				<stop  offset="0.8795" style="stop-color:#0B0B0B"/>
				<stop  offset="1" style="stop-color:#000000"/>
			</radialGradient>
			<path class="st0" d="M255.9,228.1C255.9,228.1,255.9,228.1,255.9,228.1C255.9,228.1,255.9,228.1,255.9,228.1z"/>
		</g>
		<g>
			
				<radialGradient id="SVGID_2_" cx="233.7554" cy="139.7572" r="0.1996" gradientTransform="matrix(0.9999 -1.301809e-02 1.301809e-02 0.9999 12.1009 31.4234)" gradientUnits="userSpaceOnUse">
				<stop  offset="1.198948e-03" style="stop-color:#333333"/>
				<stop  offset="0.2681" style="stop-color:#2E2E2E"/>
				<stop  offset="0.5667" style="stop-color:#212121"/>
				<stop  offset="0.8795" style="stop-color:#0B0B0B"/>
				<stop  offset="1" style="stop-color:#000000"/>
			</radialGradient>
			<path class="st1" d="M247.3,168.2c0.2-0.1,0.4-0.1,0.7-0.2C247.7,168.1,247.5,168.2,247.3,168.2z"/>
		</g>
		<g>
			
				<radialGradient id="SVGID_3_" cx="220.4179" cy="248.2823" r="1.428781e-02" gradientTransform="matrix(0.9999 1.262036e-02 -1.262036e-02 0.9999 28.9569 -15.5542)" gradientUnits="userSpaceOnUse">
				<stop  offset="1.198948e-03" style="stop-color:#333333"/>
				<stop  offset="0.2681" style="stop-color:#2E2E2E"/>
				<stop  offset="0.5667" style="stop-color:#212121"/>
				<stop  offset="0.8795" style="stop-color:#0B0B0B"/>
				<stop  offset="1" style="stop-color:#000000"/>
			</radialGradient>
			<path class="st2" d="M246.2,235.5C246.2,235.5,246.2,235.5,246.2,235.5C246.2,235.5,246.2,235.5,246.2,235.5z"/>
		</g>
		<linearGradient id="SVGID_4_" gradientUnits="userSpaceOnUse" x1="304.6875" y1="170.8608" x2="236.0784" y2="228.4748">
			<stop  offset="0" style="stop-color:#6ABEFF"/>
			<stop  offset="0.202" style="stop-color:#67B9FF"/>
			<stop  offset="0.428" style="stop-color:#5EACFF"/>
			<stop  offset="0.6656" style="stop-color:#5096FF"/>
			<stop  offset="0.9097" style="stop-color:#3C76FF"/>
			<stop  offset="1" style="stop-color:#3369FF"/>
		</linearGradient>
		<path class="st3" d="M295.5,201.2L295.5,201.2L295.5,201.2c-0.7-18.1-17.6-32.2-37.5-30.7c-17.8,1.3-31.9,15-32.3,31.3
			c-0.2,8.5,3.1,16.2,8.7,22c6,6.2,11.4,12.9,15.9,20.2l2.1,3.4l19.9-0.7l1.7-3.3c3.9-7.6,8.8-14.7,14.4-21.4
			C293.1,216.2,295.8,209,295.5,201.2z"/>
		<path class="st4" d="M287.8,201.5L287.8,201.5L287.8,201.5c-0.7-18.1-14-32.3-29.4-31c-13.8,1.2-24.6,14.7-24.9,31.1
			c-0.1,8.5,2.5,16.2,6.9,22.1c4.7,6.3,9,13,12.5,20.3l1.6,3.4l15.5-0.6l1.3-3.3c3-7.6,6.7-14.7,11-21.3
			C286,216.5,288.1,209.3,287.8,201.5z"/>
		<linearGradient id="SVGID_5_" gradientUnits="userSpaceOnUse" x1="305.5208" y1="171.8531" x2="236.9117" y2="229.4671">
			<stop  offset="0" style="stop-color:#6ABEFF"/>
			<stop  offset="0.202" style="stop-color:#67B9FF"/>
			<stop  offset="0.428" style="stop-color:#5EACFF"/>
			<stop  offset="0.6656" style="stop-color:#5096FF"/>
			<stop  offset="0.9097" style="stop-color:#3C76FF"/>
			<stop  offset="1" style="stop-color:#3369FF"/>
		</linearGradient>
		<path class="st5" d="M278.1,201.9L278.1,201.9L278.1,201.9c-0.7-18.1-9.4-32.5-19.4-31.4c-8.9,1-15.7,14.4-15.6,30.7
			c0,8.5,1.9,16.3,4.8,22.2c3.1,6.3,6,13.1,8.3,20.4l1.1,3.4l10-0.4l0.8-3.3c1.8-7.5,4.1-14.6,6.8-21.1
			C277.2,216.8,278.4,209.6,278.1,201.9z"/>
		<path class="st4" d="M267.9,202.3L267.9,202.3L267.9,202.3c-0.7-18.1-4.6-32.6-8.7-31.8c-3.7,0.8-6.2,14-5.8,30.3
			c0.2,8.5,1.1,16.3,2.5,22.2c1.4,6.4,2.8,13.2,3.9,20.6l0.5,3.4l4.1-0.2l0.3-3.3c0.6-7.5,1.4-14.5,2.4-21
			C267.8,217.1,268.2,210,267.9,202.3z"/>
		<path class="st6" d="M272.3,246.7c0,0.7-4.4,1.4-9.9,1.6c-5.5,0.2-10-0.2-10-0.9c0-0.7,4.4-1.4,9.9-1.6
			C267.8,245.6,272.2,246,272.3,246.7z"/>
		<g>
			<line class="st7" x1="253" y1="247.4" x2="255.2" y2="257.2"/>
			<line class="st7" x1="258.1" y1="247.2" x2="256.9" y2="257.2"/>
		</g>
		<g>
			<line class="st7" x1="271.7" y1="246.7" x2="270.1" y2="256.7"/>
			<line class="st7" x1="267.1" y1="246.9" x2="266.2" y2="256.9"/>
		</g>
		<linearGradient id="SVGID_6_" gradientUnits="userSpaceOnUse" x1="246.2442" y1="262.0465" x2="263.6291" y2="261.1395">
			<stop  offset="1.198948e-03" style="stop-color:#CCCCCC"/>
			<stop  offset="0.133" style="stop-color:#C9C8C7"/>
			<stop  offset="0.2805" style="stop-color:#C1BEBA"/>
			<stop  offset="0.4356" style="stop-color:#B4ACA3"/>
			<stop  offset="0.5961" style="stop-color:#A29284"/>
			<stop  offset="0.7607" style="stop-color:#8A725C"/>
			<stop  offset="0.9264" style="stop-color:#6E4B2B"/>
			<stop  offset="1" style="stop-color:#603813"/>
		</linearGradient>
		<path class="st8" d="M255.8,256.2l13.5-0.7c1.2-0.1,2.2,0.9,2.1,2.1l-0.6,6.8c-0.1,0.9-0.9,1.7-1.8,1.7l-11.5,0.7
			c-1,0.1-1.9-0.6-2.1-1.6l-1.3-6.8C253.8,257.3,254.6,256.3,255.8,256.2z"/>
	</g>
</g>
<g id="Layer_13">
</g>
<g id="Layer_7">
</g>
<g id="Layer_6">
</g>
<g id="Layer_11">
</g>
<g id="Layer_9">
</g>
<g id="Layer_10">
</g>
<g id="Layer_5">
</g>
<g id="Layer_4">
	<g>
		<path class="st4" d="M2883.6-184.6c-5.2-81-103.9-98.7-152.4-73.1c-84.6,44.7-145.6,100-243.7,125.6
			c-195.1,51.1-475.8,42.6-620.9-119.1c-38.9-43.4-41.1-70.4-101.8-96.3c-53.4-22.9-102.9-28.8-153.1-62.6
			c-98.1-65.9-164.3-175.8-172.8-294c-7.7-106.9,32.8-220.3,106.4-299.1c41.7-44.6,177.9-109.5,90.3-148.2
			c-84.2-37.2-234.8,25.8-322.4,37.5c-149.6,19.9-302,41.5-452.8,49.3c-78.7,4.1-206.1-17.5-233.9,73.7
			C612.5-944.1,652-842.5,659.4-797c14.3,88.3,28.6,176.6,42.8,264.9c46.9,289.9,85.2,581.7,131,871.2
			c18.4,116.3,70.9,129.1,183,113c120.7-17.3,240.1-41.2,361.3-57.3c373.4-49.3,746.8-98.6,1120.1-147.9
			c88.6-11.7,177-24.7,265.8-35.1c43.1-5.1,106.9,3.8,133.9-38.3c22.4-35-4.5-108.7-8.1-146.1
			C2882.4-43.2,2888.2-113.9,2883.6-184.6z"/>
	</g>
	<g>
		<g>
			
				<radialGradient id="SVGID_7_" cx="93.3123" cy="289.8217" r="1.680087e-02" gradientTransform="matrix(0.9999 -1.190971e-02 1.190971e-02 0.9999 52.0499 27.3039)" gradientUnits="userSpaceOnUse">
				<stop  offset="1.198948e-03" style="stop-color:#333333"/>
				<stop  offset="0.2681" style="stop-color:#2E2E2E"/>
				<stop  offset="0.5667" style="stop-color:#212121"/>
				<stop  offset="0.8795" style="stop-color:#0B0B0B"/>
				<stop  offset="1" style="stop-color:#000000"/>
			</radialGradient>
			<path class="st9" d="M148.8,316C148.8,316,148.8,316,148.8,316C148.8,316,148.8,316,148.8,316z"/>
		</g>
		<g>
			
				<radialGradient id="SVGID_8_" cx="124.4821" cy="218.0675" r="0.2269" gradientTransform="matrix(0.9999 -1.301809e-02 1.301809e-02 0.9999 12.1009 31.4234)" gradientUnits="userSpaceOnUse">
				<stop  offset="1.198948e-03" style="stop-color:#333333"/>
				<stop  offset="0.2681" style="stop-color:#2E2E2E"/>
				<stop  offset="0.5667" style="stop-color:#212121"/>
				<stop  offset="0.8795" style="stop-color:#0B0B0B"/>
				<stop  offset="1" style="stop-color:#000000"/>
			</radialGradient>
			<path class="st10" d="M139,248c0.2-0.1,0.5-0.2,0.7-0.2C139.5,247.8,139.2,247.9,139,248z"/>
		</g>
		<g>
			
				<radialGradient id="SVGID_9_" cx="113.1085" cy="338.5905" r="1.624348e-02" gradientTransform="matrix(0.9999 1.262036e-02 -1.262036e-02 0.9999 28.9569 -15.5542)" gradientUnits="userSpaceOnUse">
				<stop  offset="1.198948e-03" style="stop-color:#333333"/>
				<stop  offset="0.2681" style="stop-color:#2E2E2E"/>
				<stop  offset="0.5667" style="stop-color:#212121"/>
				<stop  offset="0.8795" style="stop-color:#0B0B0B"/>
				<stop  offset="1" style="stop-color:#000000"/>
			</radialGradient>
			<path class="st11" d="M137.8,324.5C137.8,324.4,137.8,324.4,137.8,324.5C137.8,324.4,137.8,324.4,137.8,324.5z"/>
		</g>
		<path class="st12" d="M193.9,285.5L193.9,285.5L193.9,285.5c-0.8-20.6-20-36.6-42.7-34.9c-20.2,1.5-36.2,17-36.7,35.6
			c-0.3,9.7,3.5,18.4,9.9,25c6.8,7.1,13,14.7,18,22.9l2.3,3.8l22.6-0.9l1.9-3.8c4.4-8.7,10-16.8,16.3-24.4
			C191.1,302.5,194.2,294.3,193.9,285.5z"/>
		<path class="st4" d="M185,285.8L185,285.8L185,285.8c-0.8-20.6-15.9-36.7-33.5-35.2c-15.7,1.3-28,16.7-28.3,35.3
			c-0.1,9.7,2.9,18.5,7.9,25.1c5.4,7.1,10.2,14.8,14.2,23.1l1.9,3.8l17.6-0.7l1.5-3.8c3.4-8.6,7.6-16.7,12.5-24.2
			C183,302.8,185.4,294.6,185,285.8z"/>
		<path class="st12" d="M174.1,286.2L174.1,286.2L174.1,286.2c-0.8-20.6-10.7-36.9-22.1-35.7c-10.1,1.1-17.9,16.3-17.8,34.9
			c0,9.7,2.1,18.5,5.4,25.2c3.6,7.2,6.8,14.9,9.5,23.2l1.2,3.9l11.4-0.4l0.9-3.7c2.1-8.6,4.7-16.6,7.7-24
			C173,303.2,174.4,295,174.1,286.2z"/>
		<path class="st4" d="M162.4,286.7L162.4,286.7L162.4,286.7c-0.8-20.6-5.3-37.1-9.9-36.1c-4.2,0.9-7.1,15.9-6.6,34.5
			c0.2,9.7,1.3,18.5,2.8,25.3c1.6,7.3,3.1,15,4.4,23.4l0.6,3.9l4.7-0.2l0.3-3.7c0.7-8.5,1.6-16.4,2.7-23.8
			C162.3,303.6,162.7,295.5,162.4,286.7z"/>
		<path class="st6" d="M167.4,337.2c0,0.8-5,1.6-11.3,1.9c-6.3,0.2-11.3-0.2-11.4-1c0-0.8,5-1.6,11.3-1.9
			C162.3,335.9,167.4,336.4,167.4,337.2z"/>
		<g>
			<line class="st7" x1="145.4" y1="338" x2="148" y2="349.1"/>
			<line class="st7" x1="151.2" y1="337.7" x2="149.9" y2="349.1"/>
		</g>
		<g>
			<line class="st7" x1="166.7" y1="337.2" x2="165" y2="348.5"/>
			<line class="st7" x1="161.5" y1="337.4" x2="160.5" y2="348.7"/>
		</g>
		<linearGradient id="SVGID_10_" gradientUnits="userSpaceOnUse" x1="137.8064" y1="354.6282" x2="157.571" y2="353.597">
			<stop  offset="1.198948e-03" style="stop-color:#CCCCCC"/>
			<stop  offset="0.133" style="stop-color:#C9C8C7"/>
			<stop  offset="0.2805" style="stop-color:#C1BEBA"/>
			<stop  offset="0.4356" style="stop-color:#B4ACA3"/>
			<stop  offset="0.5961" style="stop-color:#A29284"/>
			<stop  offset="0.7607" style="stop-color:#8A725C"/>
			<stop  offset="0.9264" style="stop-color:#6E4B2B"/>
			<stop  offset="1" style="stop-color:#603813"/>
		</linearGradient>
		<path class="st13" d="M148.7,348l15.3-0.8c1.4-0.1,2.5,1,2.4,2.4l-0.7,7.7c-0.1,1.1-1,1.9-2.1,2l-13.1,0.8
			c-1.1,0.1-2.2-0.7-2.4-1.8l-1.5-7.7C146.4,349.3,147.3,348.1,148.7,348z"/>
	</g>
	<g>
		<g>
			
				<radialGradient id="SVGID_11_" cx="-34.4539" cy="7.436" r="8.653359e-03" gradientTransform="matrix(0.9999 -1.190971e-02 1.190971e-02 0.9999 52.0499 27.3039)" gradientUnits="userSpaceOnUse">
				<stop  offset="1.198948e-03" style="stop-color:#333333"/>
				<stop  offset="0.2681" style="stop-color:#2E2E2E"/>
				<stop  offset="0.5667" style="stop-color:#212121"/>
				<stop  offset="0.8795" style="stop-color:#0B0B0B"/>
				<stop  offset="1" style="stop-color:#000000"/>
			</radialGradient>
			<path class="st14" d="M17.7,35.2C17.7,35.2,17.7,35.1,17.7,35.2C17.7,35.1,17.7,35.2,17.7,35.2z"/>
		</g>
		<g>
			
				<radialGradient id="SVGID_12_" cx="1.1549" cy="-31.3581" r="0.1169" gradientTransform="matrix(0.9999 -1.301809e-02 1.301809e-02 0.9999 12.1009 31.4234)" gradientUnits="userSpaceOnUse">
				<stop  offset="1.198948e-03" style="stop-color:#333333"/>
				<stop  offset="0.2681" style="stop-color:#2E2E2E"/>
				<stop  offset="0.5667" style="stop-color:#212121"/>
				<stop  offset="0.8795" style="stop-color:#0B0B0B"/>
				<stop  offset="1" style="stop-color:#000000"/>
			</radialGradient>
			<path class="st15" d="M12.6,0.1C12.7,0.1,12.9,0,13,0C12.9,0,12.7,0.1,12.6,0.1z"/>
		</g>
		<g>
			
				<radialGradient id="SVGID_13_" cx="-16.2518" cy="55.262" r="8.366274e-03" gradientTransform="matrix(0.9999 1.262036e-02 -1.262036e-02 0.9999 28.9569 -15.5542)" gradientUnits="userSpaceOnUse">
				<stop  offset="1.198948e-03" style="stop-color:#333333"/>
				<stop  offset="0.2681" style="stop-color:#2E2E2E"/>
				<stop  offset="0.5667" style="stop-color:#212121"/>
				<stop  offset="0.8795" style="stop-color:#0B0B0B"/>
				<stop  offset="1" style="stop-color:#000000"/>
			</radialGradient>
			<path class="st16" d="M12,39.5C12,39.5,12,39.5,12,39.5C12,39.5,12,39.5,12,39.5z"/>
		</g>
		<linearGradient id="SVGID_14_" gradientUnits="userSpaceOnUse" x1="46.2426" y1="1.6544" x2="6.0683" y2="35.3905">
			<stop  offset="7.942073e-02" style="stop-color:#61FFFB"/>
			<stop  offset="0.4626" style="stop-color:#45DDD5"/>
			<stop  offset="0.7995" style="stop-color:#31C5BB"/>
			<stop  offset="0.9988" style="stop-color:#2ABCB1"/>
		</linearGradient>
		<path class="st17" d="M40.9,19.4L40.9,19.4L40.9,19.4c-0.4-10.6-10.3-18.8-22-18C8.5,2.2,0.3,10.2,0,19.8c-0.1,5,1.8,9.5,5.1,12.9
			c3.5,3.6,6.7,7.6,9.3,11.8l1.2,2L27.3,46l1-1.9c2.3-4.5,5.2-8.6,8.4-12.5C39.5,28.2,41.1,24,40.9,19.4z"/>
		<path class="st4" d="M36.3,19.6L36.3,19.6L36.3,19.6C35.9,9,28.2,0.7,19.1,1.5C11,2.1,4.7,10.1,4.5,19.7c-0.1,5,1.5,9.5,4.1,12.9
			c2.8,3.7,5.3,7.6,7.3,11.9l1,2l9.1-0.3l0.8-1.9c1.7-4.4,3.9-8.6,6.4-12.5C35.3,28.4,36.5,24.1,36.3,19.6z"/>
		<linearGradient id="SVGID_15_" gradientUnits="userSpaceOnUse" x1="46.7305" y1="2.2355" x2="6.5563" y2="35.9716">
			<stop  offset="7.942073e-02" style="stop-color:#61FFFB"/>
			<stop  offset="0.4626" style="stop-color:#45DDD5"/>
			<stop  offset="0.7995" style="stop-color:#31C5BB"/>
			<stop  offset="0.9988" style="stop-color:#2ABCB1"/>
		</linearGradient>
		<path class="st18" d="M30.7,19.8L30.7,19.8L30.7,19.8c-0.4-10.6-5.5-19-11.4-18.4c-5.2,0.6-9.2,8.4-9.2,18c0,5,1.1,9.5,2.8,13
			c1.8,3.7,3.5,7.7,4.9,12l0.6,2l5.8-0.2l0.5-1.9c1.1-4.4,2.4-8.5,4-12.4C30.1,28.6,30.9,24.4,30.7,19.8z"/>
		<path class="st4" d="M24.7,20.1L24.7,20.1L24.7,20.1C24.3,9.4,22,0.9,19.6,1.5c-2.1,0.5-3.6,8.2-3.4,17.8c0.1,5,0.7,9.5,1.4,13
			c0.8,3.7,1.6,7.7,2.3,12.1l0.3,2l2.4-0.1l0.2-1.9c0.3-4.4,0.8-8.5,1.4-12.3C24.7,28.8,24.9,24.6,24.7,20.1z"/>
		<path class="st6" d="M27.3,46c0,0.4-2.6,0.8-5.8,1c-3.2,0.1-5.8-0.1-5.9-0.5c0-0.4,2.6-0.8,5.8-1S27.2,45.6,27.3,46z"/>
		<g>
			<line class="st19" x1="16" y1="46.5" x2="17.3" y2="52.2"/>
			<line class="st19" x1="18.6" y1="46.4" x2="19.6" y2="52.2"/>
		</g>
		<g>
			<line class="st19" x1="26.9" y1="46.1" x2="26" y2="51.9"/>
		</g>
		<linearGradient id="SVGID_16_" gradientUnits="userSpaceOnUse" x1="12.0305" y1="55.5061" x2="22.2092" y2="54.975">
			<stop  offset="1.198948e-03" style="stop-color:#CCCCCC"/>
			<stop  offset="0.133" style="stop-color:#C9C8C7"/>
			<stop  offset="0.2805" style="stop-color:#C1BEBA"/>
			<stop  offset="0.4356" style="stop-color:#B4ACA3"/>
			<stop  offset="0.5961" style="stop-color:#A29284"/>
			<stop  offset="0.7607" style="stop-color:#8A725C"/>
			<stop  offset="0.9264" style="stop-color:#6E4B2B"/>
			<stop  offset="1" style="stop-color:#603813"/>
		</linearGradient>
		<path class="st20" d="M17.6,52.1l7.9-0.4c0.7,0,1.3,0.5,1.2,1.2l-0.4,4c-0.1,0.5-0.5,1-1.1,1l-6.8,0.4c-0.6,0-1.1-0.4-1.2-0.9
			l-0.7-4C16.4,52.7,16.9,52.1,17.6,52.1z"/>
	</g>
	<g>
		<g>
			
				<radialGradient id="SVGID_17_" cx="115.845" cy="108.3055" r="8.908095e-03" gradientTransform="matrix(0.9999 -1.190971e-02 1.190971e-02 0.9999 52.0499 27.3039)" gradientUnits="userSpaceOnUse">
				<stop  offset="1.198948e-03" style="stop-color:#333333"/>
				<stop  offset="0.2681" style="stop-color:#2E2E2E"/>
				<stop  offset="0.5667" style="stop-color:#212121"/>
				<stop  offset="0.8795" style="stop-color:#0B0B0B"/>
				<stop  offset="1" style="stop-color:#000000"/>
			</radialGradient>
			<path class="st21" d="M169.2,134.2C169.2,134.2,169.2,134.2,169.2,134.2C169.2,134.2,169.2,134.2,169.2,134.2z"/>
		</g>
		<g>
			
				<radialGradient id="SVGID_18_" cx="151.213" cy="68.643" r="0.1203" gradientTransform="matrix(0.9999 -1.301809e-02 1.301809e-02 0.9999 12.1009 31.4234)" gradientUnits="userSpaceOnUse">
				<stop  offset="1.198948e-03" style="stop-color:#333333"/>
				<stop  offset="0.2681" style="stop-color:#2E2E2E"/>
				<stop  offset="0.5667" style="stop-color:#212121"/>
				<stop  offset="0.8795" style="stop-color:#0B0B0B"/>
				<stop  offset="1" style="stop-color:#000000"/>
			</radialGradient>
			<path class="st22" d="M164,98.2c0.1,0,0.3-0.1,0.4-0.1C164.2,98.1,164.1,98.1,164,98.2z"/>
		</g>
		<g>
			
				<radialGradient id="SVGID_19_" cx="136.3106" cy="152.5447" r="8.612558e-03" gradientTransform="matrix(0.9999 1.262036e-02 -1.262036e-02 0.9999 28.9569 -15.5542)" gradientUnits="userSpaceOnUse">
				<stop  offset="1.198948e-03" style="stop-color:#333333"/>
				<stop  offset="0.2681" style="stop-color:#2E2E2E"/>
				<stop  offset="0.5667" style="stop-color:#212121"/>
				<stop  offset="0.8795" style="stop-color:#0B0B0B"/>
				<stop  offset="1" style="stop-color:#000000"/>
			</radialGradient>
			<path class="st23" d="M163.3,138.7C163.3,138.7,163.3,138.7,163.3,138.7C163.3,138.7,163.3,138.7,163.3,138.7z"/>
		</g>
		<path class="st24" d="M193.1,118.1L193.1,118.1L193.1,118.1c-0.4-10.9-10.6-19.4-22.6-18.5c-10.7,0.8-19.2,9-19.5,18.9
			c-0.1,5.1,1.9,9.8,5.2,13.3c3.6,3.8,6.9,7.8,9.6,12.1l1.2,2l12-0.5l1-2c2.4-4.6,5.3-8.9,8.7-12.9
			C191.6,127.1,193.2,122.7,193.1,118.1z"/>
		<path class="st4" d="M188.4,118.2L188.4,118.2L188.4,118.2c-0.4-10.9-8.4-19.5-17.7-18.7c-8.3,0.7-14.9,8.9-15,18.7
			c-0.1,5.1,1.5,9.8,4.2,13.3c2.8,3.8,5.4,7.8,7.5,12.2l1,2l9.3-0.4l0.8-2c1.8-4.6,4.1-8.8,6.6-12.8
			C187.3,127.2,188.6,122.9,188.4,118.2z"/>
		<path class="st24" d="M182.6,118.4L182.6,118.4L182.6,118.4c-0.4-10.9-5.7-19.6-11.7-18.9c-5.4,0.6-9.5,8.7-9.4,18.5
			c0,5.1,1.1,9.8,2.9,13.4c1.9,3.8,3.6,7.9,5,12.3l0.7,2.1l6-0.2l0.5-2c1.1-4.5,2.5-8.8,4.1-12.7C182,127.4,182.7,123.1,182.6,118.4
			z"/>
		<path class="st4" d="M176.4,118.7L176.4,118.7L176.4,118.7c-0.4-10.9-2.8-19.7-5.3-19.1c-2.2,0.5-3.7,8.4-3.5,18.3
			c0.1,5.1,0.7,9.8,1.5,13.4c0.9,3.9,1.7,8,2.4,12.4l0.3,2.1l2.5-0.1l0.2-2c0.4-4.5,0.8-8.7,1.4-12.6
			C176.4,127.6,176.6,123.3,176.4,118.7z"/>
		<path class="st6" d="M179,145.4c0,0.4-2.7,0.9-6,1c-3.3,0.1-6-0.1-6-0.5c0-0.4,2.7-0.9,6-1C176.3,144.8,179,145,179,145.4z"/>
		<g>
			<line class="st19" x1="167.4" y1="145.9" x2="168.8" y2="151.8"/>
			<line class="st19" x1="170.1" y1="145.8" x2="171.1" y2="151.7"/>
		</g>
		<g>
			<line class="st19" x1="178.7" y1="145.5" x2="177.7" y2="151.5"/>
		</g>
		<path d="M169.1,151.7l8.1-0.4c0.7,0,1.3,0.6,1.3,1.3l-0.4,4.1c-0.1,0.6-0.5,1-1.1,1l-7,0.4c-0.6,0-1.1-0.4-1.3-0.9L168,153
			C167.9,152.3,168.4,151.7,169.1,151.7z"/>
	</g>
</g>
<g id="Layer_14">
</g>
<g id="Layer_3">
</g>
<g id="Layer_1">
	<rect x="2617.6" y="-1395.9" class="st25" width="983" height="1852"/>
	<g id="Layer_2">
	</g>
	<polyline class="st25" points="2938.6,-1517.3 2938.6,-1101.9 492.6,-1101.9 492.6,-2953.9 2938.6,-2953.9 2938.6,-1517.3 	"/>
</g>
<g id="Layer_15">
</g>
</svg>
