<?xml version="1.0" encoding="UTF-8"?>
<svg width="42px" height="43px" viewBox="0 0 42 43" version="1.1" xmlns="http://www.w3.org/2000/svg" xmlns:xlink="http://www.w3.org/1999/xlink">
    <!-- Generator: Sketch 52.5 (67469) - http://www.bohemiancoding.com/sketch -->
    <title>love</title>
    <desc>Created with Sketch.</desc>
    <defs>
        <polygon id="path-1" points="0.00501992032 8.3984375e-05 41.9444462 8.3984375e-05 41.9444462 42.9999625 0.00501992032 42.9999625"></polygon>
        <linearGradient x1="87.0886611%" y1="7.2780629%" x2="8.71538174%" y2="113.820312%" id="linearGradient-3">
            <stop stop-color="#67ADFF" offset="0%"></stop>
            <stop stop-color="#205AFB" offset="100%"></stop>
        </linearGradient>
    </defs>
    <g id="Symbols" stroke="none" stroke-width="1" fill="none" fill-rule="evenodd">
        <g id="Landing-Page---Featured" transform="translate(-337.000000, -3248.000000)">
            <g id="love" transform="translate(337.000000, 3248.000000)">
                <g id="Group-4">
                    <mask id="mask-2" fill="white">
                        <use xlink:href="#path-1"></use>
                    </mask>
                    <g id="Clip-2"></g>
                    <path d="M34.0584024,8.3984375e-05 L7.88604382,8.3984375e-05 C3.53067729,8.3984375e-05 0,3.54430859 0,7.91619922 L0,25.1474414 C0,29.5195 3.53076096,33.0636406 7.88604382,33.0636406 L11.6421155,33.0636406 C11.8208247,33.0636406 11.9656494,33.2089336 11.9656494,33.3884082 L11.9656494,41.8882148 C11.9656494,42.8931719 13.190259,43.3804492 13.8760637,42.6482734 L22.7604024,33.1660176 C22.8215618,33.1006777 22.9068167,33.0637246 22.9960876,33.0637246 L34.0584024,33.0637246 C38.4137689,33.0637246 41.9444462,29.5195 41.9444462,25.1475254 L41.9444462,7.91619922 C41.9444462,3.54430859 38.4136853,8.3984375e-05 34.0584024,8.3984375e-05" id="Fill-1" fill="url(#linearGradient-3)" mask="url(#mask-2)"></path>
                </g>
                <path d="M31.4059815,10.4724637 C29.2806235,8.50917876 25.834721,8.50917876 23.709363,10.4724637 L22.5087147,11.5814724 C22.2225627,11.8458854 21.7583428,11.8458854 21.472102,11.5814724 L20.2907258,10.4901842 C18.1653678,8.52689927 14.7194654,8.52689927 12.5940185,10.4901842 C10.4686605,12.4535512 10.4686605,15.6366801 12.5940185,17.599965 L21.4728125,25.8016903 C21.7590533,26.0661032 22.2232732,26.0661032 22.509514,25.8016903 L31.4059815,17.5822445 C33.5313395,15.6188775 33.5313395,12.4358307 31.4059815,10.4724637" id="Fill-5" fill="#FFFFFF"></path>
            </g>
        </g>
    </g>
</svg>