<?xml version="1.0" encoding="UTF-8"?>
<svg width="31px" height="31px" viewBox="0 0 31 31" version="1.1" xmlns="http://www.w3.org/2000/svg" xmlns:xlink="http://www.w3.org/1999/xlink">
    <!-- Generator: Sketch 53.1 (72631) - https://sketchapp.com -->
    <title>Group 6</title>
    <desc>Created with Sketch.</desc>
    <defs>
        <circle id="path-1" cx="15.037037" cy="15.037037" r="15.037037"></circle>
    </defs>
    <g id="Symbols" stroke="none" stroke-width="1" fill="none" fill-rule="evenodd">
        <g id="Landing-Page---Featured" transform="translate(-381.000000, -4505.000000)">
            <g id="Group-6" transform="translate(381.703704, 4505.148148)">
                <mask id="mask-2" fill="white">
                    <use xlink:href="#path-1"></use>
                </mask>
                <use id="Mask" fill="#00C3FF" xlink:href="#path-1"></use>
                <path d="M23.1767044,14.5750366 L17.5708356,8.97213411 C17.4907385,8.89225341 17.3984609,8.85185185 17.2947408,8.85185185 C17.1902824,8.85185185 17.0980048,8.89225341 17.0179077,8.97213411 L16.4166264,9.57317643 C16.3359757,9.65324162 16.2962963,9.74548261 16.2962963,9.84989942 C16.2962963,9.95450071 16.3359757,10.0467417 16.4166264,10.1266224 L21.1436427,14.8517596 L16.4166264,19.5778192 C16.3359757,19.6576999 16.2962963,19.7499409 16.2962963,19.8545422 C16.2962963,19.9582211 16.3359757,20.0504621 16.4166264,20.1312652 L17.0179077,20.7315696 C17.0980048,20.8121882 17.1902824,20.8518519 17.2947408,20.8518519 C17.3984609,20.8518519 17.4907385,20.8121882 17.5708356,20.7315696 L23.1767044,15.1284826 C23.2568015,15.0486019 23.2962963,14.9563609 23.2962963,14.8517596 C23.2962963,14.7473428 23.2568015,14.6551018 23.1767044,14.5750366 Z" id="Fill-4" stroke="#FFFFFF" fill="#FFFFFF" mask="url(#mask-2)"></path>
                <path d="M13.1767044,14.5750366 L7.57083557,8.97213411 C7.49073854,8.89225341 7.39846087,8.85185185 7.29474076,8.85185185 C7.19028243,8.85185185 7.09800475,8.89225341 7.01790773,8.97213411 L6.41662639,9.57317643 C6.3359757,9.65324162 6.2962963,9.74548261 6.2962963,9.84989942 C6.2962963,9.95450071 6.3359757,10.0467417 6.41662639,10.1266224 L11.1436427,14.8517596 L6.41662639,19.5778192 C6.3359757,19.6576999 6.2962963,19.7499409 6.2962963,19.8545422 C6.2962963,19.9582211 6.3359757,20.0504621 6.41662639,20.1312652 L7.01790773,20.7315696 C7.09800475,20.8121882 7.19028243,20.8518519 7.29474076,20.8518519 C7.39846087,20.8518519 7.49073854,20.8121882 7.57083557,20.7315696 L13.1767044,15.1284826 C13.2568015,15.0486019 13.2962963,14.9563609 13.2962963,14.8517596 C13.2962963,14.7473428 13.2568015,14.6551018 13.1767044,14.5750366 Z" id="Fill-4" stroke="#FFFFFF" fill="#FFFFFF" mask="url(#mask-2)" transform="translate(9.796296, 14.851852) scale(-1, 1) translate(-9.796296, -14.851852) "></path>
            </g>
        </g>
    </g>
</svg>