<?xml version="1.0" encoding="UTF-8"?>
<svg width="31px" height="31px" viewBox="0 0 31 31" version="1.1" xmlns="http://www.w3.org/2000/svg" xmlns:xlink="http://www.w3.org/1999/xlink">
    <!-- Generator: Sketch 53.1 (72631) - https://sketchapp.com -->
    <title>Group 39</title>
    <desc>Created with Sketch.</desc>
    <defs>
        <circle id="path-1" cx="15.037037" cy="15.037037" r="15.037037"></circle>
    </defs>
    <g id="Symbols" stroke="none" stroke-width="1" fill="none" fill-rule="evenodd">
        <g id="Landing-Page---Featured" transform="translate(-916.000000, -4872.000000)">
            <g id="Group-39" transform="translate(916.814815, 4872.259259)">
                <g id="Group-6">
                    <mask id="mask-2" fill="white">
                        <use xlink:href="#path-1"></use>
                    </mask>
                    <use id="Mask" fill="#0074B8" xlink:href="#path-1"></use>
                </g>
                <g id="flaticon1548420362-svg" transform="translate(8.185185, 10.740741)" fill="#FFFFFF" stroke="#FFFFFF">
                    <path d="M14.9209739,9.07033388 C14.8684235,9.02331691 14.8010039,9 14.7189304,9 L6.28113069,9 C6.19911885,9 6.1316992,9.02334428 6.07896411,9.07033388 C6.02629058,9.11715928 6,9.17698413 6,9.24994527 L6,9.75005473 C6,9.8229064 6.02629058,9.88286809 6.07896411,9.92966612 C6.1316992,9.97651888 6.19911885,10 6.28113069,10 L14.7189304,10 C14.8010039,10 14.8684235,9.97651888 14.9209739,9.92966612 C14.9736474,9.88284072 14.9999996,9.8229064 14.9999996,9.75005473 L14.9999996,9.24994527 C15.0001227,9.17698413 14.9738937,9.11715928 14.9209739,9.07033388 Z" id="Path"></path>
                    <path d="M0.910543516,0.0902100479 C0.853279088,0.0301016021 0.787378354,0 0.71293159,0 C0.638484825,0 0.572674366,0.0301016021 0.51544003,0.0902100479 L0.085821412,0.541197115 C0.0285870762,0.601273975 0,0.670352888 0,0.748560198 C0,0.826830681 0.0285870762,0.895878007 0.085821412,0.955986453 L3.46234631,4.50011055 L0.085821412,8.04426624 C0.0285870762,8.10437468 0,8.17354835 0,8.25159773 C0,8.32986822 0.0285870762,8.39894713 0.085821412,8.45902399 L0.515409939,8.90985312 C0.572674366,8.97005633 0.638454733,9 0.712901498,9 C0.787348263,9 0.853279088,8.96996157 0.910513424,8.90985312 L4.9141485,4.70747363 C4.97141292,4.64739677 5,4.57809676 5,4.49995262 C5,4.42184007 4.97141292,4.3526664 4.9141485,4.29258954 L0.910543516,0.0902100479 Z" id="Path"></path>
                </g>
            </g>
        </g>
    </g>
</svg>