<?xml version="1.0" encoding="UTF-8"?>
<svg width="46px" height="47px" viewBox="0 0 46 47" version="1.1" xmlns="http://www.w3.org/2000/svg" xmlns:xlink="http://www.w3.org/1999/xlink">
    <!-- Generator: Sketch 52.5 (67469) - http://www.bohemiancoding.com/sketch -->
    <title>love</title>
    <desc>Created with Sketch.</desc>
    <defs>
        <polygon id="path-1" points="0.00547284546 9.15619126e-05 45.7289075 9.15619126e-05 45.7289075 46.8796584 0.00547284546 46.8796584"></polygon>
        <linearGradient x1="92.4424588%" y1="0%" x2="8.71538174%" y2="113.820312%" id="linearGradient-3">
            <stop stop-color="#F25D2A" offset="4.14559249%"></stop>
            <stop stop-color="#FB9020" offset="100%"></stop>
        </linearGradient>
    </defs>
    <g id="Symbols" stroke="none" stroke-width="1" fill="none" fill-rule="evenodd">
        <g id="Landing-Page---Featured" transform="translate(-897.000000, -2637.000000)">
            <g id="Group-31" transform="translate(314.000000, 2637.000000)">
                <g id="love" transform="translate(583.270677, 0.000000)">
                    <g id="Group-4">
                        <mask id="mask-2" fill="white">
                            <use xlink:href="#path-1"></use>
                        </mask>
                        <g id="Clip-2"></g>
                        <path d="M37.131341,9.15619126e-05 L8.59756658,9.15619126e-05 C3.84923464,9.15619126e-05 0,3.86409584 0,8.63044276 L0,27.4163835 C0,32.1829135 3.84932585,36.0468262 8.59756658,36.0468262 L12.692532,36.0468262 C12.8873653,36.0468262 13.0452569,36.2052284 13.0452569,36.4008962 L13.0452569,45.6676026 C13.0452569,46.7632325 14.3803575,47.2944747 15.1280394,46.496238 L24.8139725,36.1584402 C24.88065,36.087205 24.9735972,36.0469178 25.0709226,36.0469178 L37.131341,36.0469178 C41.8796729,36.0469178 45.7289075,32.1829135 45.7289075,27.416475 L45.7289075,8.63044276 C45.7289075,3.86409584 41.8795817,9.15619126e-05 37.131341,9.15619126e-05" id="Fill-1" fill="url(#linearGradient-3)" mask="url(#mask-2)"></path>
                    </g>
                    <path d="M33.228371,11.4173477 C31.016575,9.27692421 27.4305282,9.27692421 25.2187322,11.4173477 L23.9692536,12.6264172 C23.6714639,12.914687 23.1883642,12.914687 22.890482,12.6264172 L21.6610595,11.436667 C19.4492635,9.29624357 15.8632167,9.29624357 13.6513282,11.436667 C11.4395322,13.5771799 11.4395322,17.0475083 13.6513282,19.1879318 L22.8912214,28.1296623 C23.1891036,28.4179321 23.6722033,28.4179321 23.9700855,28.1296623 L33.228371,19.1686124 C35.4401671,17.0280995 35.4401671,13.5578605 33.228371,11.4173477" id="Fill-5" fill="#FFFFFF"></path>
                </g>
            </g>
        </g>
    </g>
</svg>