<?xml version="1.0" encoding="UTF-8"?>
<svg width="42px" height="43px" viewBox="0 0 42 43" version="1.1" xmlns="http://www.w3.org/2000/svg" xmlns:xlink="http://www.w3.org/1999/xlink">
    <!-- Generator: Sketch 52.5 (67469) - http://www.bohemiancoding.com/sketch -->
    <title>love</title>
    <desc>Created with Sketch.</desc>
    <defs>
        <polygon id="path-1" points="0.00501992032 8.3984375e-05 41.9444462 8.3984375e-05 41.9444462 42.9999625 0.00501992032 42.9999625"></polygon>
        <linearGradient x1="92.4424588%" y1="0%" x2="8.71538174%" y2="113.820312%" id="linearGradient-3">
            <stop stop-color="#F25D2A" offset="4.14559249%"></stop>
            <stop stop-color="#FB9020" offset="100%"></stop>
        </linearGradient>
    </defs>
    <g id="Symbols" stroke="none" stroke-width="1" fill="none" fill-rule="evenodd">
        <g id="Landing-Page---Featured" transform="translate(-885.000000, -3398.000000)">
            <g id="love" transform="translate(885.000000, 3398.000000)">
                <g id="Group-4">
                    <mask id="mask-2" fill="white">
                        <use xlink:href="#path-1"></use>
                    </mask>
                    <g id="Clip-2"></g>
                    <path d="M34.0584024,8.3984375e-05 L7.88604382,8.3984375e-05 C3.53067729,8.3984375e-05 0,3.54430859 0,7.91619922 L0,25.1474414 C0,29.5195 3.53076096,33.0636406 7.88604382,33.0636406 L11.6421155,33.0636406 C11.8208247,33.0636406 11.9656494,33.2089336 11.9656494,33.3884082 L11.9656494,41.8882148 C11.9656494,42.8931719 13.190259,43.3804492 13.8760637,42.6482734 L22.7604024,33.1660176 C22.8215618,33.1006777 22.9068167,33.0637246 22.9960876,33.0637246 L34.0584024,33.0637246 C38.4137689,33.0637246 41.9444462,29.5195 41.9444462,25.1475254 L41.9444462,7.91619922 C41.9444462,3.54430859 38.4136853,8.3984375e-05 34.0584024,8.3984375e-05" id="Fill-1" fill="url(#linearGradient-3)" mask="url(#mask-2)"></path>
                </g>
                <path d="M30.4784369,10.4724637 C28.449686,8.50917876 25.1604155,8.50917876 23.1316647,10.4724637 L21.9855913,11.5814724 C21.7124462,11.8458854 21.2693272,11.8458854 20.9960973,11.5814724 L19.8684201,10.4901842 C17.8396693,8.52689927 14.5503987,8.52689927 12.5215631,10.4901842 C10.4928123,12.4535512 10.4928123,15.6366801 12.5215631,17.599965 L20.9967755,25.8016903 C21.2700054,26.0661032 21.7131244,26.0661032 21.9863543,25.8016903 L30.4784369,17.5822445 C32.5071877,15.6188775 32.5071877,12.4358307 30.4784369,10.4724637" id="Fill-5" fill="#FFFFFF"></path>
            </g>
        </g>
    </g>
</svg>