<?xml version="1.0" encoding="utf-8"?>
<!-- Generator: Adobe Illustrator 22.1.0, SVG Export Plug-In . SVG Version: 6.00 Build 0)  -->
<svg version="1.1" xmlns="http://www.w3.org/2000/svg" xmlns:xlink="http://www.w3.org/1999/xlink" x="0px" y="0px"
	 viewBox="0 0 79.4 112.3" style="enable-background:new 0 0 79.4 112.3;" xml:space="preserve">
<style type="text/css">
	.st0{fill:url(#SVGID_1_);}
	.st1{fill:url(#SVGID_2_);}
	.st2{fill:url(#SVGID_3_);}
	.st3{fill:url(#SVGID_4_);}
	.st4{fill:#FFFFFF;}
	.st5{fill:url(#SVGID_5_);}
	.st6{fill:#334E70;}
	.st7{fill:none;stroke:#334E70;stroke-width:1.2443;stroke-miterlimit:10;}
	.st8{fill:url(#SVGID_6_);}
	.st9{fill:url(#SVGID_7_);}
	.st10{fill:url(#SVGID_8_);}
	.st11{fill:url(#SVGID_9_);}
	.st12{fill:#FF0000;}
	.st13{fill:url(#SVGID_10_);}
	.st14{fill:url(#SVGID_11_);}
	.st15{fill:url(#SVGID_12_);}
	.st16{fill:url(#SVGID_13_);}
	.st17{fill:url(#SVGID_14_);}
	.st18{fill:url(#SVGID_15_);}
	.st19{fill:none;stroke:#334E70;stroke-width:0.5;stroke-miterlimit:10;}
	.st20{fill:url(#SVGID_16_);}
	.st21{fill:url(#SVGID_17_);}
	.st22{fill:url(#SVGID_18_);}
	.st23{fill:url(#SVGID_19_);}
	.st24{fill:#FF6464;}
	.st25{fill:#606060;}
</style>
<g id="Layer_12">
</g>
<g id="Layer_8">
	<g>
		<g>
			
				<radialGradient id="SVGID_1_" cx="86.9979" cy="-44.5757" r="1.477810e-02" gradientTransform="matrix(0.9999 -1.190971e-02 1.190971e-02 0.9999 54.9924 25.9231)" gradientUnits="userSpaceOnUse">
				<stop  offset="1.198948e-03" style="stop-color:#333333"/>
				<stop  offset="0.2681" style="stop-color:#2E2E2E"/>
				<stop  offset="0.5667" style="stop-color:#212121"/>
				<stop  offset="0.8795" style="stop-color:#0B0B0B"/>
				<stop  offset="1" style="stop-color:#000000"/>
			</radialGradient>
			<path class="st0" d="M141.5-19.7C141.5-19.7,141.4-19.7,141.5-19.7C141.4-19.7,141.5-19.7,141.5-19.7z"/>
		</g>
		<g>
			
				<radialGradient id="SVGID_2_" cx="119.2881" cy="-107.9919" r="0.1996" gradientTransform="matrix(0.9999 -1.301809e-02 1.301809e-02 0.9999 15.3165 29.9123)" gradientUnits="userSpaceOnUse">
				<stop  offset="1.198948e-03" style="stop-color:#333333"/>
				<stop  offset="0.2681" style="stop-color:#2E2E2E"/>
				<stop  offset="0.5667" style="stop-color:#212121"/>
				<stop  offset="0.8795" style="stop-color:#0B0B0B"/>
				<stop  offset="1" style="stop-color:#000000"/>
			</radialGradient>
			<path class="st1" d="M132.8-79.5c0.2-0.1,0.4-0.1,0.7-0.2C133.2-79.6,133-79.6,132.8-79.5z"/>
		</g>
		<g>
			
				<radialGradient id="SVGID_3_" cx="105.9506" cy="0.5331" r="1.428781e-02" gradientTransform="matrix(0.9999 1.262036e-02 -1.262036e-02 0.9999 25.8211 -14.1293)" gradientUnits="userSpaceOnUse">
				<stop  offset="1.198948e-03" style="stop-color:#333333"/>
				<stop  offset="0.2681" style="stop-color:#2E2E2E"/>
				<stop  offset="0.5667" style="stop-color:#212121"/>
				<stop  offset="0.8795" style="stop-color:#0B0B0B"/>
				<stop  offset="1" style="stop-color:#000000"/>
			</radialGradient>
			<path class="st2" d="M131.8-12.2C131.8-12.3,131.7-12.3,131.8-12.2C131.7-12.3,131.8-12.3,131.8-12.2z"/>
		</g>
		<linearGradient id="SVGID_4_" gradientUnits="userSpaceOnUse" x1="190.2202" y1="-76.8883" x2="121.6111" y2="-19.2743">
			<stop  offset="0" style="stop-color:#6ABEFF"/>
			<stop  offset="0.202" style="stop-color:#67B9FF"/>
			<stop  offset="0.428" style="stop-color:#5EACFF"/>
			<stop  offset="0.6656" style="stop-color:#5096FF"/>
			<stop  offset="0.9097" style="stop-color:#3C76FF"/>
			<stop  offset="1" style="stop-color:#3369FF"/>
		</linearGradient>
		<path class="st3" d="M181.1-46.5L181.1-46.5L181.1-46.5c-0.7-18.1-17.6-32.2-37.5-30.7c-17.8,1.3-31.9,15-32.3,31.3
			c-0.2,8.5,3.1,16.2,8.7,22c6,6.2,11.4,12.9,15.9,20.2l2.1,3.4l19.9-0.7l1.7-3.3c3.9-7.6,8.8-14.7,14.4-21.4
			C178.6-31.6,181.4-38.8,181.1-46.5z"/>
		<path class="st4" d="M173.3-46.2L173.3-46.2L173.3-46.2c-0.7-18.1-14-32.3-29.4-31C130.1-76,119.2-62.5,119-46.1
			c-0.1,8.5,2.5,16.2,6.9,22.1c4.7,6.3,9,13,12.5,20.3l1.6,3.4L155.6-1l1.3-3.3c3-7.6,6.7-14.7,11-21.3
			C171.5-31.3,173.6-38.5,173.3-46.2z"/>
		<linearGradient id="SVGID_5_" gradientUnits="userSpaceOnUse" x1="191.0535" y1="-75.896" x2="122.4444" y2="-18.282">
			<stop  offset="0" style="stop-color:#6ABEFF"/>
			<stop  offset="0.202" style="stop-color:#67B9FF"/>
			<stop  offset="0.428" style="stop-color:#5EACFF"/>
			<stop  offset="0.6656" style="stop-color:#5096FF"/>
			<stop  offset="0.9097" style="stop-color:#3C76FF"/>
			<stop  offset="1" style="stop-color:#3369FF"/>
		</linearGradient>
		<path class="st5" d="M163.7-45.9L163.7-45.9L163.7-45.9c-0.7-18.1-9.4-32.5-19.4-31.4c-8.9,1-15.7,14.4-15.6,30.7
			c0,8.5,1.9,16.3,4.8,22.2c3.1,6.3,6,13.1,8.3,20.4l1.1,3.4l10-0.4l0.8-3.3c1.8-7.5,4.1-14.6,6.8-21.1
			C162.7-31,164-38.1,163.7-45.9z"/>
		<path class="st4" d="M153.4-45.5L153.4-45.5L153.4-45.5c-0.7-18.1-4.6-32.6-8.7-31.8c-3.7,0.8-6.2,14-5.8,30.3
			c0.2,8.5,1.1,16.3,2.5,22.2c1.4,6.4,2.8,13.2,3.9,20.6l0.5,3.4l4.1-0.2l0.3-3.3c0.6-7.5,1.4-14.5,2.4-21
			C153.4-30.6,153.7-37.7,153.4-45.5z"/>
		<path class="st6" d="M157.8-1.1c0,0.7-4.4,1.4-9.9,1.6s-10-0.2-10-0.9c0-0.7,4.4-1.4,9.9-1.6S157.8-1.8,157.8-1.1z"/>
		<g>
			<line class="st7" x1="138.5" y1="-0.3" x2="140.8" y2="9.5"/>
			<line class="st7" x1="143.6" y1="-0.6" x2="142.4" y2="9.4"/>
		</g>
		<g>
			<line class="st7" x1="157.2" y1="-1.1" x2="155.7" y2="8.9"/>
			<line class="st7" x1="152.6" y1="-0.9" x2="151.8" y2="9.1"/>
		</g>
		<linearGradient id="SVGID_6_" gradientUnits="userSpaceOnUse" x1="131.7769" y1="14.2974" x2="149.1618" y2="13.3904">
			<stop  offset="1.198948e-03" style="stop-color:#CCCCCC"/>
			<stop  offset="0.133" style="stop-color:#C9C8C7"/>
			<stop  offset="0.2805" style="stop-color:#C1BEBA"/>
			<stop  offset="0.4356" style="stop-color:#B4ACA3"/>
			<stop  offset="0.5961" style="stop-color:#A29284"/>
			<stop  offset="0.7607" style="stop-color:#8A725C"/>
			<stop  offset="0.9264" style="stop-color:#6E4B2B"/>
			<stop  offset="1" style="stop-color:#603813"/>
		</linearGradient>
		<path class="st8" d="M141.4,8.5l13.5-0.7c1.2-0.1,2.2,0.9,2.1,2.1l-0.6,6.8c-0.1,0.9-0.9,1.7-1.8,1.7l-11.5,0.7
			c-1,0.1-1.9-0.6-2.1-1.6l-1.3-6.8C139.3,9.6,140.2,8.5,141.4,8.5z"/>
	</g>
</g>
<g id="Layer_13">
</g>
<g id="Layer_7">
</g>
<g id="Layer_6">
</g>
<g id="Layer_11">
</g>
<g id="Layer_9">
</g>
<g id="Layer_10">
</g>
<g id="Layer_5">
</g>
<g id="Layer_4">
	<g>
		<path class="st4" d="M2769.2-432.3c-5.2-81-103.9-98.7-152.4-73.1c-84.6,44.7-145.6,100-243.7,125.6
			c-195.1,51.1-475.8,42.6-620.9-119.1c-38.9-43.4-41.1-70.4-101.8-96.3c-53.4-22.9-102.9-28.8-153.1-62.6
			c-98.1-65.9-164.3-175.8-172.8-294c-7.7-106.9,32.8-220.3,106.4-299.1c41.7-44.6,177.9-109.5,90.3-148.2
			c-84.2-37.2-234.8,25.8-322.4,37.5c-149.6,19.9-302,41.5-452.8,49.3c-78.7,4.1-206.1-17.5-233.9,73.7
			c-14.2,46.6,25.4,148.2,32.7,193.6c14.3,88.3,28.6,176.6,42.8,264.9c46.9,289.9,85.2,581.7,131,871.2
			c18.4,116.3,70.9,129.1,183,113C1022.3,187,1141.8,163,1263,147c373.4-49.3,746.8-98.6,1120.1-147.9
			c88.6-11.7,177-24.7,265.8-35.1c43.1-5.1,106.9,3.8,133.9-38.3c22.4-35-4.5-108.7-8.1-146.1C2767.9-291,2773.7-361.6,2769.2-432.3
			z"/>
	</g>
	<g>
		<g>
			
				<radialGradient id="SVGID_7_" cx="-21.155" cy="42.0726" r="1.680087e-02" gradientTransform="matrix(0.9999 -1.190971e-02 1.190971e-02 0.9999 54.9924 25.9231)" gradientUnits="userSpaceOnUse">
				<stop  offset="1.198948e-03" style="stop-color:#333333"/>
				<stop  offset="0.2681" style="stop-color:#2E2E2E"/>
				<stop  offset="0.5667" style="stop-color:#212121"/>
				<stop  offset="0.8795" style="stop-color:#0B0B0B"/>
				<stop  offset="1" style="stop-color:#000000"/>
			</radialGradient>
			<path class="st9" d="M34.4,68.3C34.3,68.3,34.3,68.2,34.4,68.3C34.3,68.2,34.3,68.3,34.4,68.3z"/>
		</g>
		<g>
			
				<radialGradient id="SVGID_8_" cx="10.0148" cy="-29.6816" r="0.2269" gradientTransform="matrix(0.9999 -1.301809e-02 1.301809e-02 0.9999 15.3165 29.9123)" gradientUnits="userSpaceOnUse">
				<stop  offset="1.198948e-03" style="stop-color:#333333"/>
				<stop  offset="0.2681" style="stop-color:#2E2E2E"/>
				<stop  offset="0.5667" style="stop-color:#212121"/>
				<stop  offset="0.8795" style="stop-color:#0B0B0B"/>
				<stop  offset="1" style="stop-color:#000000"/>
			</radialGradient>
			<path class="st10" d="M24.5,0.2C24.8,0.2,25,0.1,25.2,0C25,0.1,24.8,0.2,24.5,0.2z"/>
		</g>
		<g>
			
				<radialGradient id="SVGID_9_" cx="-1.3588" cy="90.8413" r="1.624348e-02" gradientTransform="matrix(0.9999 1.262036e-02 -1.262036e-02 0.9999 25.8211 -14.1293)" gradientUnits="userSpaceOnUse">
				<stop  offset="1.198948e-03" style="stop-color:#333333"/>
				<stop  offset="0.2681" style="stop-color:#2E2E2E"/>
				<stop  offset="0.5667" style="stop-color:#212121"/>
				<stop  offset="0.8795" style="stop-color:#0B0B0B"/>
				<stop  offset="1" style="stop-color:#000000"/>
			</radialGradient>
			<path class="st11" d="M23.3,76.7C23.3,76.7,23.3,76.7,23.3,76.7C23.3,76.7,23.3,76.7,23.3,76.7z"/>
		</g>
		<path class="st12" d="M79.4,37.8L79.4,37.8L79.4,37.8c-0.8-20.6-20-36.6-42.7-34.9C16.5,4.4,0.5,19.9,0,38.5
			c-0.3,9.7,3.5,18.4,9.9,25c6.8,7.1,13,14.7,18,22.9l2.3,3.8l22.6-0.9l1.9-3.8c4.4-8.7,10-16.8,16.3-24.4
			C76.6,54.8,79.7,46.6,79.4,37.8z"/>
		<path class="st4" d="M70.6,38.1L70.6,38.1L70.6,38.1C69.8,17.5,54.7,1.4,37.1,2.9C21.4,4.2,9.1,19.6,8.8,38.2
			c-0.1,9.7,2.9,18.5,7.9,25.1C22.1,70.4,27,78,31,86.3l1.9,3.8l17.6-0.7l1.5-3.8c3.4-8.6,7.6-16.7,12.5-24.2
			C68.5,55.1,70.9,46.9,70.6,38.1z"/>
		<path class="st12" d="M59.6,38.5L59.6,38.5L59.6,38.5C58.8,17.9,48.9,1.6,37.5,2.8C27.4,3.9,19.7,19.2,19.8,37.7
			c0,9.7,2.1,18.5,5.4,25.2c3.6,7.2,6.8,14.9,9.5,23.2l1.2,3.9l11.4-0.4l0.9-3.7c2.1-8.6,4.7-16.6,7.7-24
			C58.5,55.4,59.9,47.3,59.6,38.5z"/>
		<path class="st4" d="M47.9,38.9L47.9,38.9L47.9,38.9C47.2,18.3,42.7,1.8,38,2.8c-4.2,0.9-7.1,15.9-6.6,34.5
			c0.2,9.7,1.3,18.5,2.8,25.3c1.6,7.3,3.1,15,4.4,23.4l0.6,3.9l4.7-0.2l0.3-3.7c0.7-8.5,1.6-16.4,2.7-23.8
			C47.9,55.8,48.3,47.7,47.9,38.9z"/>
		<path class="st6" d="M52.9,89.4c0,0.8-5,1.6-11.3,1.9s-11.3-0.2-11.4-1c0-0.8,5-1.6,11.3-1.9C47.8,88.2,52.9,88.6,52.9,89.4z"/>
		<g>
			<line class="st7" x1="31" y1="90.2" x2="33.6" y2="101.4"/>
			<line class="st7" x1="36.8" y1="90" x2="35.4" y2="101.3"/>
		</g>
		<g>
			<line class="st7" x1="52.2" y1="89.4" x2="50.5" y2="100.7"/>
			<line class="st7" x1="47" y1="89.6" x2="46.1" y2="101"/>
		</g>
		<linearGradient id="SVGID_10_" gradientUnits="userSpaceOnUse" x1="23.3391" y1="106.8791" x2="43.1037" y2="105.8479">
			<stop  offset="1.198948e-03" style="stop-color:#CCCCCC"/>
			<stop  offset="0.133" style="stop-color:#C9C8C7"/>
			<stop  offset="0.2805" style="stop-color:#C1BEBA"/>
			<stop  offset="0.4356" style="stop-color:#B4ACA3"/>
			<stop  offset="0.5961" style="stop-color:#A29284"/>
			<stop  offset="0.7607" style="stop-color:#8A725C"/>
			<stop  offset="0.9264" style="stop-color:#6E4B2B"/>
			<stop  offset="1" style="stop-color:#603813"/>
		</linearGradient>
		<path class="st13" d="M34.2,100.3l15.3-0.8c1.4-0.1,2.5,1,2.4,2.4l-0.7,7.7c-0.1,1.1-1,1.9-2.1,2L36,112.3
			c-1.1,0.1-2.2-0.7-2.4-1.8l-1.5-7.7C31.9,101.5,32.9,100.3,34.2,100.3z"/>
	</g>
	<g>
		<g>
			
				<radialGradient id="SVGID_11_" cx="-149.9093" cy="-241.325" r="8.653359e-03" gradientTransform="matrix(0.9999 -1.190971e-02 1.190971e-02 0.9999 54.9924 25.9231)" gradientUnits="userSpaceOnUse">
				<stop  offset="1.198948e-03" style="stop-color:#333333"/>
				<stop  offset="0.2681" style="stop-color:#2E2E2E"/>
				<stop  offset="0.5667" style="stop-color:#212121"/>
				<stop  offset="0.8795" style="stop-color:#0B0B0B"/>
				<stop  offset="1" style="stop-color:#000000"/>
			</radialGradient>
			<path class="st14" d="M-97.8-213.6C-97.8-213.6-97.8-213.6-97.8-213.6C-97.8-213.6-97.8-213.6-97.8-213.6z"/>
		</g>
		<g>
			
				<radialGradient id="SVGID_12_" cx="-114.2993" cy="-280.1202" r="0.1169" gradientTransform="matrix(0.9999 -1.301809e-02 1.301809e-02 0.9999 15.3165 29.9123)" gradientUnits="userSpaceOnUse">
				<stop  offset="1.198948e-03" style="stop-color:#333333"/>
				<stop  offset="0.2681" style="stop-color:#2E2E2E"/>
				<stop  offset="0.5667" style="stop-color:#212121"/>
				<stop  offset="0.8795" style="stop-color:#0B0B0B"/>
				<stop  offset="1" style="stop-color:#000000"/>
			</radialGradient>
			<path class="st15" d="M-102.8-248.6c0.1,0,0.3-0.1,0.4-0.1C-102.6-248.7-102.7-248.7-102.8-248.6z"/>
		</g>
		<g>
			
				<radialGradient id="SVGID_13_" cx="-131.7316" cy="-193.4744" r="8.366274e-03" gradientTransform="matrix(0.9999 1.262036e-02 -1.262036e-02 0.9999 25.8211 -14.1293)" gradientUnits="userSpaceOnUse">
				<stop  offset="1.198948e-03" style="stop-color:#333333"/>
				<stop  offset="0.2681" style="stop-color:#2E2E2E"/>
				<stop  offset="0.5667" style="stop-color:#212121"/>
				<stop  offset="0.8795" style="stop-color:#0B0B0B"/>
				<stop  offset="1" style="stop-color:#000000"/>
			</radialGradient>
			<path class="st16" d="M-103.5-209.2C-103.5-209.2-103.5-209.3-103.5-209.2C-103.5-209.3-103.5-209.2-103.5-209.2z"/>
		</g>
		<linearGradient id="SVGID_14_" gradientUnits="userSpaceOnUse" x1="-69.2247" y1="-247.0947" x2="-109.399" y2="-213.3586">
			<stop  offset="7.942073e-02" style="stop-color:#61FFFB"/>
			<stop  offset="0.4626" style="stop-color:#45DDD5"/>
			<stop  offset="0.7995" style="stop-color:#31C5BB"/>
			<stop  offset="0.9988" style="stop-color:#2ABCB1"/>
		</linearGradient>
		<path class="st17" d="M-74.6-229.3L-74.6-229.3L-74.6-229.3c-0.4-10.6-10.3-18.8-22-18c-10.4,0.8-18.7,8.8-18.9,18.3
			c-0.1,5,1.8,9.5,5.1,12.9c3.5,3.6,6.7,7.6,9.3,11.8l1.2,2l11.7-0.4l1-1.9c2.3-4.5,5.2-8.6,8.4-12.5
			C-76-220.5-74.4-224.8-74.6-229.3z"/>
		<path class="st4" d="M-79.1-229.1L-79.1-229.1L-79.1-229.1c-0.4-10.6-8.2-18.9-17.2-18.1c-8.1,0.7-14.4,8.6-14.6,18.2
			c-0.1,5,1.5,9.5,4.1,12.9c2.8,3.7,5.3,7.6,7.3,11.9l1,2l9.1-0.3l0.8-1.9c1.7-4.4,3.9-8.6,6.4-12.5
			C-80.2-220.4-79-224.6-79.1-229.1z"/>
		<linearGradient id="SVGID_15_" gradientUnits="userSpaceOnUse" x1="-68.7368" y1="-246.5136" x2="-108.911" y2="-212.7776">
			<stop  offset="7.942073e-02" style="stop-color:#61FFFB"/>
			<stop  offset="0.4626" style="stop-color:#45DDD5"/>
			<stop  offset="0.7995" style="stop-color:#31C5BB"/>
			<stop  offset="0.9988" style="stop-color:#2ABCB1"/>
		</linearGradient>
		<path class="st18" d="M-84.8-228.9L-84.8-228.9L-84.8-228.9c-0.4-10.6-5.5-19-11.4-18.4c-5.2,0.6-9.2,8.4-9.2,18
			c0,5,1.1,9.5,2.8,13c1.8,3.7,3.5,7.7,4.9,12l0.6,2l5.8-0.2l0.5-1.9c1.1-4.4,2.4-8.5,4-12.4C-85.3-220.2-84.6-224.4-84.8-228.9z"/>
		<path class="st4" d="M-90.8-228.7L-90.8-228.7L-90.8-228.7c-0.4-10.6-2.7-19.1-5.1-18.6c-2.1,0.5-3.6,8.2-3.4,17.8
			c0.1,5,0.7,9.5,1.4,13c0.8,3.7,1.6,7.7,2.3,12.1l0.3,2l2.4-0.1l0.2-1.9c0.3-4.4,0.8-8.5,1.4-12.3C-90.8-220-90.6-224.2-90.8-228.7
			z"/>
		<path class="st6" d="M-88.2-202.7c0,0.4-2.6,0.8-5.8,1c-3.2,0.1-5.8-0.1-5.9-0.5c0-0.4,2.6-0.8,5.8-1S-88.2-203.1-88.2-202.7z"/>
		<g>
			<line class="st19" x1="-99.5" y1="-202.3" x2="-98.2" y2="-196.5"/>
			<line class="st19" x1="-96.8" y1="-202.4" x2="-95.9" y2="-196.6"/>
		</g>
		<g>
			<line class="st19" x1="-88.6" y1="-202.7" x2="-89.5" y2="-196.9"/>
		</g>
		<linearGradient id="SVGID_16_" gradientUnits="userSpaceOnUse" x1="-103.4368" y1="-193.2431" x2="-93.2581" y2="-193.7741">
			<stop  offset="1.198948e-03" style="stop-color:#CCCCCC"/>
			<stop  offset="0.133" style="stop-color:#C9C8C7"/>
			<stop  offset="0.2805" style="stop-color:#C1BEBA"/>
			<stop  offset="0.4356" style="stop-color:#B4ACA3"/>
			<stop  offset="0.5961" style="stop-color:#A29284"/>
			<stop  offset="0.7607" style="stop-color:#8A725C"/>
			<stop  offset="0.9264" style="stop-color:#6E4B2B"/>
			<stop  offset="1" style="stop-color:#603813"/>
		</linearGradient>
		<path class="st20" d="M-97.8-196.7l7.9-0.4c0.7,0,1.3,0.5,1.2,1.2l-0.4,4c-0.1,0.5-0.5,1-1.1,1l-6.8,0.4c-0.6,0-1.1-0.4-1.2-0.9
			l-0.7-4C-99-196-98.5-196.6-97.8-196.7z"/>
	</g>
	<g>
		<g>
			
				<radialGradient id="SVGID_17_" cx="1.3777" cy="-139.4436" r="8.908095e-03" gradientTransform="matrix(0.9999 -1.190971e-02 1.190971e-02 0.9999 54.9924 25.9231)" gradientUnits="userSpaceOnUse">
				<stop  offset="1.198948e-03" style="stop-color:#333333"/>
				<stop  offset="0.2681" style="stop-color:#2E2E2E"/>
				<stop  offset="0.5667" style="stop-color:#212121"/>
				<stop  offset="0.8795" style="stop-color:#0B0B0B"/>
				<stop  offset="1" style="stop-color:#000000"/>
			</radialGradient>
			<path class="st21" d="M54.7-113.5C54.7-113.5,54.7-113.5,54.7-113.5C54.7-113.5,54.7-113.5,54.7-113.5z"/>
		</g>
		<g>
			
				<radialGradient id="SVGID_18_" cx="36.7457" cy="-179.1061" r="0.1203" gradientTransform="matrix(0.9999 -1.301809e-02 1.301809e-02 0.9999 15.3165 29.9123)" gradientUnits="userSpaceOnUse">
				<stop  offset="1.198948e-03" style="stop-color:#333333"/>
				<stop  offset="0.2681" style="stop-color:#2E2E2E"/>
				<stop  offset="0.5667" style="stop-color:#212121"/>
				<stop  offset="0.8795" style="stop-color:#0B0B0B"/>
				<stop  offset="1" style="stop-color:#000000"/>
			</radialGradient>
			<path class="st22" d="M49.5-149.6c0.1,0,0.3-0.1,0.4-0.1C49.8-149.7,49.6-149.6,49.5-149.6z"/>
		</g>
		<g>
			
				<radialGradient id="SVGID_19_" cx="21.8433" cy="-95.2044" r="8.612558e-03" gradientTransform="matrix(0.9999 1.262036e-02 -1.262036e-02 0.9999 25.8211 -14.1293)" gradientUnits="userSpaceOnUse">
				<stop  offset="1.198948e-03" style="stop-color:#333333"/>
				<stop  offset="0.2681" style="stop-color:#2E2E2E"/>
				<stop  offset="0.5667" style="stop-color:#212121"/>
				<stop  offset="0.8795" style="stop-color:#0B0B0B"/>
				<stop  offset="1" style="stop-color:#000000"/>
			</radialGradient>
			<path class="st23" d="M48.9-109C48.9-109,48.9-109.1,48.9-109C48.9-109.1,48.9-109,48.9-109z"/>
		</g>
		<path class="st24" d="M78.6-129.7L78.6-129.7L78.6-129.7C78.2-140.6,68-149.1,56-148.2c-10.7,0.8-19.2,9-19.5,18.9
			c-0.1,5.1,1.9,9.8,5.2,13.3c3.6,3.8,6.9,7.8,9.6,12.1l1.2,2l12-0.5l1-2c2.4-4.6,5.3-8.9,8.7-12.9C77.1-120.7,78.8-125,78.6-129.7z
			"/>
		<path class="st4" d="M73.9-129.5L73.9-129.5L73.9-129.5c-0.4-10.9-8.4-19.5-17.7-18.7c-8.3,0.7-14.9,8.9-15,18.7
			c-0.1,5.1,1.5,9.8,4.2,13.3c2.8,3.8,5.4,7.8,7.5,12.2l1,2l9.3-0.4l0.8-2c1.8-4.6,4.1-8.8,6.6-12.8
			C72.8-120.5,74.1-124.9,73.9-129.5z"/>
		<path class="st24" d="M68.1-129.3L68.1-129.3L68.1-129.3c-0.4-10.9-5.7-19.6-11.7-18.9c-5.4,0.6-9.5,8.7-9.4,18.5
			c0,5.1,1.1,9.8,2.9,13.4c1.9,3.8,3.6,7.9,5,12.3l0.7,2.1l6-0.2l0.5-2c1.1-4.5,2.5-8.8,4.1-12.7C67.5-120.3,68.3-124.6,68.1-129.3z
			"/>
		<path class="st4" d="M61.9-129.1L61.9-129.1L61.9-129.1c-0.4-10.9-2.8-19.7-5.3-19.1c-2.2,0.5-3.7,8.4-3.5,18.3
			c0.1,5.1,0.7,9.8,1.5,13.4c0.9,3.9,1.7,8,2.4,12.4l0.3,2.1l2.5-0.1l0.2-2c0.4-4.5,0.8-8.7,1.4-12.6
			C61.9-120.1,62.1-124.4,61.9-129.1z"/>
		<path class="st6" d="M64.6-102.3c0,0.4-2.7,0.9-6,1c-3.3,0.1-6-0.1-6-0.5c0-0.4,2.7-0.9,6-1C61.8-103,64.6-102.7,64.6-102.3z"/>
		<g>
			<line class="st19" x1="52.9" y1="-101.9" x2="54.3" y2="-96"/>
			<line class="st19" x1="55.7" y1="-102" x2="56.7" y2="-96"/>
		</g>
		<g>
			<line class="st19" x1="64.2" y1="-102.3" x2="63.3" y2="-96.3"/>
		</g>
		<path d="M54.7-96.1l8.1-0.4c0.7,0,1.3,0.6,1.3,1.3l-0.4,4.1c-0.1,0.6-0.5,1-1.1,1l-7,0.4c-0.6,0-1.1-0.4-1.3-0.9l-0.8-4.1
			C53.4-95.4,53.9-96,54.7-96.1z"/>
	</g>
</g>
<g id="Layer_14">
</g>
<g id="Layer_3">
</g>
<g id="Layer_1">
	<rect x="2503.1" y="-1643.7" class="st25" width="983" height="1852"/>
	<g id="Layer_2">
	</g>
	<polyline class="st25" points="2824.1,-1765 2824.1,-1349.7 378.1,-1349.7 378.1,-3201.7 2824.1,-3201.7 2824.1,-1765 	"/>
</g>
<g id="Layer_15">
</g>
</svg>
