<?xml version="1.0" encoding="UTF-8"?>
<svg width="39px" height="40px" viewBox="0 0 39 40" version="1.1" xmlns="http://www.w3.org/2000/svg" xmlns:xlink="http://www.w3.org/1999/xlink">
    <!-- Generator: Sketch 52.5 (67469) - http://www.bohemiancoding.com/sketch -->
    <title>love</title>
    <desc>Created with Sketch.</desc>
    <defs>
        <polygon id="path-1" points="0.00456070455 7.6656485e-05 38.1074229 7.6656485e-05 38.1074229 39.2480861 0.00456070455 39.2480861"></polygon>
        <linearGradient x1="87.0886611%" y1="7.2780629%" x2="8.71538174%" y2="113.820312%" id="linearGradient-3">
            <stop stop-color="#67ADFF" offset="0%"></stop>
            <stop stop-color="#205AFB" offset="100%"></stop>
        </linearGradient>
    </defs>
    <g id="Symbols" stroke="none" stroke-width="1" fill="none" fill-rule="evenodd">
        <g id="Landing-Page---Featured" transform="translate(-806.000000, -2747.000000)">
            <g id="Group-31" transform="translate(314.000000, 2637.000000)">
                <g id="love" transform="translate(492.781955, 110.112782)">
                    <g id="Group-4">
                        <mask id="mask-2" fill="white">
                            <use xlink:href="#path-1"></use>
                        </mask>
                        <g id="Clip-2"></g>
                        <path d="M30.9427841,7.6656485e-05 L7.16463881,7.6656485e-05 C3.20769553,7.6656485e-05 0,3.23505698 0,7.22548696 L0,22.9532513 C0,26.9438346 3.20777155,30.1787383 7.16463881,30.1787383 L10.57711,30.1787383 C10.7394711,30.1787383 10.8710474,30.311354 10.8710474,30.4751689 L10.8710474,38.2333418 C10.8710474,39.1506133 11.9836313,39.5953742 12.6066995,38.9270829 L20.6783104,30.2721825 C20.733875,30.2125438 20.811331,30.1788149 20.8924355,30.1788149 L30.9427841,30.1788149 C34.8997274,30.1788149 38.1074229,26.9438346 38.1074229,22.9533279 L38.1074229,7.22548696 C38.1074229,3.23505698 34.8996514,7.6656485e-05 30.9427841,7.6656485e-05" id="Fill-1" fill="url(#linearGradient-3)" mask="url(#mask-2)"></path>
                    </g>
                    <path d="M28.0142213,10.0438308 C26.1183962,8.2811291 23.0446418,8.2811291 21.1488166,10.0438308 L20.077835,11.0395351 C19.8225867,11.2769338 19.4085012,11.2769338 19.1531737,11.0395351 L18.0993829,10.0597408 C16.2035577,8.29703915 13.1298033,8.29703915 11.233899,10.0597408 C9.33807378,11.8225161 9.33807378,14.6804337 11.233899,16.4431353 L19.1538074,23.8069134 C19.409135,24.0443121 19.8232204,24.0443121 20.078548,23.8069134 L28.0142213,16.4272253 C29.9100465,14.66445 29.9100465,11.8066061 28.0142213,10.0438308" id="Fill-5" fill="#FFFFFF"></path>
                </g>
            </g>
        </g>
    </g>
</svg>