<?xml version="1.0" encoding="UTF-8"?>
<svg width="34px" height="34px" viewBox="0 0 34 34" version="1.1" xmlns="http://www.w3.org/2000/svg" xmlns:xlink="http://www.w3.org/1999/xlink">
    <!-- Generator: Sketch 52.5 (67469) - http://www.bohemiancoding.com/sketch -->
    <title>thumbs-up-hand-symbol</title>
    <desc>Created with Sketch.</desc>
    <defs>
        <polygon id="path-1" points="0 0 33.7969925 0 33.7969925 32.7067669 0 32.7067669"></polygon>
        <linearGradient x1="87.0886611%" y1="7.2780629%" x2="8.71538174%" y2="113.820312%" id="linearGradient-3">
            <stop stop-color="#67ADFF" offset="0%"></stop>
            <stop stop-color="#205AFB" offset="100%"></stop>
        </linearGradient>
    </defs>
    <g id="Symbols" stroke="none" stroke-width="1" fill="none" fill-rule="evenodd">
        <g id="Landing-Page---Featured" transform="translate(-316.000000, -2957.000000)">
            <g id="Group-31" transform="translate(314.000000, 2637.000000)">
                <g id="thumbs-up-hand-symbol" transform="translate(19.078947, 336.879699) scale(-1, -1) translate(-19.078947, -336.879699) translate(2.180451, 320.526316)">
                    <mask id="mask-2" fill="white">
                        <use xlink:href="#path-1"></use>
                    </mask>
                    <g id="Clip-2"></g>
                    <path d="M32.6735822,18.1634565 C33.4222088,17.268956 33.7969925,16.2124131 33.7969925,14.9912141 C33.7969925,13.8833795 33.4087228,12.9261528 32.6331244,12.1159406 C31.8565851,11.3067084 30.9364049,10.9022556 29.8741518,10.9022556 L24.2119384,10.9022556 C24.2658822,10.7032963 24.3207668,10.533413 24.3747106,10.3903191 C24.4286543,10.2488586 24.504552,10.0930235 24.6002081,9.92216014 C24.6946096,9.75227692 24.7629802,9.6248645 24.803438,9.5392695 C25.0499485,9.05673581 25.2371835,8.65881704 25.3657704,8.34747337 C25.4956118,8.03482291 25.6245123,7.60848136 25.7543537,7.06877544 C25.8841951,6.53004962 25.9491158,5.99034369 25.9491158,5.45031107 C25.9491158,5.10956454 25.9453523,4.83285091 25.9381388,4.62082358 C25.9318663,4.40781616 25.897681,4.08765163 25.8362102,3.66261688 C25.775053,3.23627534 25.6928829,2.88148077 25.5912679,2.59823317 C25.4883984,2.31367878 25.3253126,1.99449434 25.1001287,1.63969977 C24.8758858,1.28359841 24.6027171,0.996757123 24.282818,0.777215731 C23.9619781,0.556367545 23.5539499,0.37243629 23.0552838,0.223135075 C22.5578721,0.073833861 21.9967942,0 21.3695411,0 C21.0142023,0 20.7081028,0.135253179 20.4496745,0.404452743 C20.1761922,0.687700342 19.9447358,1.04380171 19.7537373,1.46883646 C19.5636796,1.895178 19.4303883,2.26369391 19.3554316,2.57667107 C19.2807884,2.88932153 19.1951684,3.32187035 19.0995123,3.8756243 C18.9768843,4.47152237 18.8849918,4.9004775 18.8238346,5.16314309 C18.7626774,5.42613538 18.6425585,5.7708023 18.4659867,6.19583705 C18.2884741,6.62185189 18.0777171,6.96259843 17.8315202,7.21807666 C17.3817798,7.68623561 16.6946241,8.53891869 15.7672304,9.77285893 C15.0995195,10.6814075 14.4111093,11.5402978 13.7029406,12.34953 C12.9935174,13.1597423 12.4766608,13.5782431 12.1495484,13.6063391 C11.8089499,13.6344352 11.5160228,13.779816 11.2698259,14.0428083 C11.0248836,14.3058006 10.9022556,14.6145307 10.9022556,14.9693253 L10.9022556,28.6191153 C10.9022556,28.9879579 11.032097,29.3032219 11.2905253,29.5662142 C11.5492672,29.8288798 11.8566212,29.9667466 12.2107055,29.9807946 C12.6874179,29.9961495 13.7640977,30.3074931 15.4401179,30.918746 C16.4901396,31.2875886 17.3109002,31.5685493 17.9036543,31.7599947 C18.4954676,31.95144 19.3237553,32.1566066 20.3869492,32.3774548 C21.4492023,32.5969962 22.4305397,32.7067669 23.329707,32.7067669 L25.9673061,32.7067669 C27.7806947,32.6786708 29.1220754,32.1249169 29.9942708,31.0464851 C30.7846096,30.0676964 31.117681,28.7824645 30.9963075,27.1924229 C31.5269636,26.6667651 31.8957884,26.0006268 32.0990184,25.1913946 C32.3304748,24.3249902 32.3304748,23.4941959 32.0990184,22.7003186 C32.7262715,21.8339141 33.0191987,20.8613327 32.9787409,19.782901 C32.9799954,19.3274833 32.8780667,18.7890841 32.6735822,18.1634565 Z" id="Fill-1" fill="url(#linearGradient-3)" mask="url(#mask-2)"></path>
                    <path d="M7.37974098,14.1729323 L1.34206353,14.1729323 C0.978882865,14.1729323 0.66331136,14.3171981 0.398244163,14.6043357 C0.133176966,14.8914733 0,15.2333203 0,15.6267407 L0,30.162733 C0,30.5561534 0.133176966,30.8966066 0.398244163,31.185138 C0.664598094,31.4722756 0.978882865,31.6165414 1.34206353,31.6165414 L7.37974098,31.6165414 C7.74420838,31.6165414 8.05849315,31.4722756 8.32356035,31.185138 C8.58991428,30.8966066 8.72180451,30.5561534 8.72180451,30.162733 L8.72180451,15.6267407 C8.72180451,15.2333203 8.58991428,14.8914733 8.32356035,14.6043357 C8.05849315,14.3171981 7.74420838,14.1729323 7.37974098,14.1729323 Z M4.96840153,28.2883239 C4.70333433,28.5688406 4.38937124,28.7089247 4.02619058,28.7089247 C3.6478908,28.7089247 3.33006751,28.5688406 3.0711123,28.2883239 C2.81344382,28.0095495 2.68412705,27.6649147 2.68412705,27.2554649 C2.68412705,26.8620445 2.81344382,26.5215913 3.0711123,26.2330599 C3.33006751,25.9459223 3.6478908,25.8016565 4.02619058,25.8016565 C4.38937124,25.8016565 4.70333433,25.9459223 4.96840153,26.2330599 C5.23475546,26.5215913 5.36825411,26.8620445 5.36825411,27.2554649 C5.36825411,27.6649147 5.23475546,28.0095495 4.96840153,28.2883239 Z" id="Fill-3" fill="url(#linearGradient-3)" mask="url(#mask-2)"></path>
                </g>
            </g>
        </g>
    </g>
</svg>