<?xml version="1.0" encoding="utf-8"?>
<!-- Generator: Adobe Illustrator 22.1.0, SVG Export Plug-In . SVG Version: 6.00 Build 0)  -->
<svg version="1.1" xmlns="http://www.w3.org/2000/svg" xmlns:xlink="http://www.w3.org/1999/xlink" x="0px" y="0px"
	 viewBox="0 0 42.1 60" style="enable-background:new 0 0 42.1 60;" xml:space="preserve">
<style type="text/css">
	.st0{fill:url(#SVGID_1_);}
	.st1{fill:url(#SVGID_2_);}
	.st2{fill:url(#SVGID_3_);}
	.st3{fill:url(#SVGID_4_);}
	.st4{fill:#FFFFFF;}
	.st5{fill:url(#SVGID_5_);}
	.st6{fill:#334E70;}
	.st7{fill:none;stroke:#334E70;stroke-width:1.2443;stroke-miterlimit:10;}
	.st8{fill:url(#SVGID_6_);}
	.st9{fill:url(#SVGID_7_);}
	.st10{fill:url(#SVGID_8_);}
	.st11{fill:url(#SVGID_9_);}
	.st12{fill:#FF0000;}
	.st13{fill:url(#SVGID_10_);}
	.st14{fill:url(#SVGID_11_);}
	.st15{fill:url(#SVGID_12_);}
	.st16{fill:url(#SVGID_13_);}
	.st17{fill:url(#SVGID_14_);}
	.st18{fill:url(#SVGID_15_);}
	.st19{fill:none;stroke:#334E70;stroke-width:0.5;stroke-miterlimit:10;}
	.st20{fill:url(#SVGID_16_);}
	.st21{fill:url(#SVGID_17_);}
	.st22{fill:url(#SVGID_18_);}
	.st23{fill:url(#SVGID_19_);}
	.st24{fill:#FF6464;}
	.st25{fill:#606060;}
</style>
<g id="Layer_12">
</g>
<g id="Layer_8">
	<g>
		<g>
			
				<radialGradient id="SVGID_1_" cx="50.4963" cy="105.1358" r="1.477810e-02" gradientTransform="matrix(0.9999 -1.190971e-02 1.190971e-02 0.9999 53.2068 25.499)" gradientUnits="userSpaceOnUse">
				<stop  offset="1.198948e-03" style="stop-color:#333333"/>
				<stop  offset="0.2681" style="stop-color:#2E2E2E"/>
				<stop  offset="0.5667" style="stop-color:#212121"/>
				<stop  offset="0.8795" style="stop-color:#0B0B0B"/>
				<stop  offset="1" style="stop-color:#000000"/>
			</radialGradient>
			<path class="st0" d="M105,130C105,130,104.9,130,105,130C104.9,130,105,130,105,130z"/>
		</g>
		<g>
			
				<radialGradient id="SVGID_2_" cx="82.7864" cy="41.7196" r="0.1996" gradientTransform="matrix(0.9999 -1.301809e-02 1.301809e-02 0.9999 13.3644 29.4498)" gradientUnits="userSpaceOnUse">
				<stop  offset="1.198948e-03" style="stop-color:#333333"/>
				<stop  offset="0.2681" style="stop-color:#2E2E2E"/>
				<stop  offset="0.5667" style="stop-color:#212121"/>
				<stop  offset="0.8795" style="stop-color:#0B0B0B"/>
				<stop  offset="1" style="stop-color:#000000"/>
			</radialGradient>
			<path class="st1" d="M96.3,70.2c0.2-0.1,0.4-0.1,0.7-0.2C96.7,70.1,96.5,70.1,96.3,70.2z"/>
		</g>
		<g>
			
				<radialGradient id="SVGID_3_" cx="69.4489" cy="150.2446" r="1.428781e-02" gradientTransform="matrix(0.9999 1.262036e-02 -1.262036e-02 0.9999 27.7076 -13.6568)" gradientUnits="userSpaceOnUse">
				<stop  offset="1.198948e-03" style="stop-color:#333333"/>
				<stop  offset="0.2681" style="stop-color:#2E2E2E"/>
				<stop  offset="0.5667" style="stop-color:#212121"/>
				<stop  offset="0.8795" style="stop-color:#0B0B0B"/>
				<stop  offset="1" style="stop-color:#000000"/>
			</radialGradient>
			<path class="st2" d="M95.3,137.5C95.3,137.5,95.2,137.4,95.3,137.5C95.2,137.4,95.3,137.5,95.3,137.5z"/>
		</g>
		<linearGradient id="SVGID_4_" gradientUnits="userSpaceOnUse" x1="153.7185" y1="72.8232" x2="85.1095" y2="130.4372">
			<stop  offset="0" style="stop-color:#6ABEFF"/>
			<stop  offset="0.202" style="stop-color:#67B9FF"/>
			<stop  offset="0.428" style="stop-color:#5EACFF"/>
			<stop  offset="0.6656" style="stop-color:#5096FF"/>
			<stop  offset="0.9097" style="stop-color:#3C76FF"/>
			<stop  offset="1" style="stop-color:#3369FF"/>
		</linearGradient>
		<path class="st3" d="M144.6,103.2L144.6,103.2L144.6,103.2C143.9,85.1,127,71,107.1,72.5c-17.8,1.3-31.9,15-32.3,31.3
			c-0.2,8.5,3.1,16.2,8.7,22c6,6.2,11.4,12.9,15.9,20.2l2.1,3.4l19.9-0.7l1.7-3.3c3.9-7.6,8.8-14.7,14.4-21.4
			C142.1,118.2,144.9,110.9,144.6,103.2z"/>
		<path class="st4" d="M136.8,103.5L136.8,103.5L136.8,103.5c-0.7-18.1-14-32.3-29.4-31c-13.8,1.2-24.6,14.7-24.9,31.1
			c-0.1,8.5,2.5,16.2,6.9,22.1c4.7,6.3,9,13,12.5,20.3l1.6,3.4l15.5-0.6l1.3-3.3c3-7.6,6.7-14.7,11-21.3
			C135,118.4,137.1,111.2,136.8,103.5z"/>
		<linearGradient id="SVGID_5_" gradientUnits="userSpaceOnUse" x1="154.5518" y1="73.8155" x2="85.9427" y2="131.4295">
			<stop  offset="0" style="stop-color:#6ABEFF"/>
			<stop  offset="0.202" style="stop-color:#67B9FF"/>
			<stop  offset="0.428" style="stop-color:#5EACFF"/>
			<stop  offset="0.6656" style="stop-color:#5096FF"/>
			<stop  offset="0.9097" style="stop-color:#3C76FF"/>
			<stop  offset="1" style="stop-color:#3369FF"/>
		</linearGradient>
		<path class="st5" d="M127.2,103.9L127.2,103.9L127.2,103.9c-0.7-18.1-9.4-32.5-19.4-31.4c-8.9,1-15.7,14.4-15.6,30.7
			c0,8.5,1.9,16.3,4.8,22.2c3.1,6.3,6,13.1,8.3,20.4l1.1,3.4l10-0.4l0.8-3.3c1.8-7.5,4.1-14.6,6.8-21.1
			C126.2,118.8,127.5,111.6,127.2,103.9z"/>
		<path class="st4" d="M116.9,104.2L116.9,104.2L116.9,104.2c-0.7-18.1-4.6-32.6-8.7-31.8c-3.7,0.8-6.2,14-5.8,30.3
			c0.2,8.5,1.1,16.3,2.5,22.2c1.4,6.4,2.8,13.2,3.9,20.6l0.5,3.4l4.1-0.2l0.3-3.3c0.6-7.5,1.4-14.5,2.4-21
			C116.9,119.1,117.2,112,116.9,104.2z"/>
		<path class="st6" d="M121.3,148.6c0,0.7-4.4,1.4-9.9,1.6c-5.5,0.2-10-0.2-10-0.9c0-0.7,4.4-1.4,9.9-1.6
			C116.8,147.5,121.3,147.9,121.3,148.6z"/>
		<g>
			<line class="st7" x1="102" y1="149.4" x2="104.3" y2="159.2"/>
			<line class="st7" x1="107.1" y1="149.2" x2="105.9" y2="159.1"/>
		</g>
		<g>
			<line class="st7" x1="120.7" y1="148.7" x2="119.2" y2="158.6"/>
			<line class="st7" x1="116.1" y1="148.8" x2="115.3" y2="158.8"/>
		</g>
		<linearGradient id="SVGID_6_" gradientUnits="userSpaceOnUse" x1="95.2752" y1="164.0089" x2="112.6602" y2="163.1019">
			<stop  offset="1.198948e-03" style="stop-color:#CCCCCC"/>
			<stop  offset="0.133" style="stop-color:#C9C8C7"/>
			<stop  offset="0.2805" style="stop-color:#C1BEBA"/>
			<stop  offset="0.4356" style="stop-color:#B4ACA3"/>
			<stop  offset="0.5961" style="stop-color:#A29284"/>
			<stop  offset="0.7607" style="stop-color:#8A725C"/>
			<stop  offset="0.9264" style="stop-color:#6E4B2B"/>
			<stop  offset="1" style="stop-color:#603813"/>
		</linearGradient>
		<path class="st8" d="M104.9,158.2l13.5-0.7c1.2-0.1,2.2,0.9,2.1,2.1l-0.6,6.8c-0.1,0.9-0.9,1.7-1.8,1.7l-11.5,0.7
			c-1,0.1-1.9-0.6-2.1-1.6l-1.3-6.8C102.8,159.3,103.7,158.2,104.9,158.2z"/>
	</g>
</g>
<g id="Layer_13">
</g>
<g id="Layer_7">
</g>
<g id="Layer_6">
</g>
<g id="Layer_11">
</g>
<g id="Layer_9">
</g>
<g id="Layer_10">
</g>
<g id="Layer_5">
</g>
<g id="Layer_4">
	<g>
		<path class="st4" d="M2732.7-282.6c-5.2-81-103.9-98.7-152.4-73.1c-84.6,44.7-145.6,100-243.7,125.6
			c-195.1,51.1-475.8,42.6-620.9-119.1c-38.9-43.4-41.1-70.4-101.8-96.3c-53.4-22.9-102.9-28.8-153.1-62.6
			c-98.1-65.9-164.3-175.8-172.8-294c-7.7-106.9,32.8-220.3,106.4-299.1c41.7-44.6,177.9-109.5,90.3-148.2
			c-84.2-37.2-234.8,25.8-322.4,37.5c-149.6,19.9-302,41.5-452.8,49.3c-78.7,4.1-206.1-17.5-233.9,73.7
			c-14.2,46.6,25.4,148.2,32.7,193.6c14.3,88.3,28.6,176.6,42.8,264.9c46.9,289.9,85.2,581.7,131,871.2
			c18.4,116.3,70.9,129.1,183,113c120.7-17.3,240.1-41.2,361.3-57.3c373.4-49.3,746.8-98.6,1120.1-147.9
			c88.6-11.7,177-24.7,265.8-35.1c43.1-5.1,106.9,3.8,133.9-38.3c22.4-35-4.5-108.7-8.1-146.1
			C2731.4-141.3,2737.2-211.9,2732.7-282.6z"/>
	</g>
	<g>
		<g>
			
				<radialGradient id="SVGID_7_" cx="-57.6566" cy="191.7841" r="1.680087e-02" gradientTransform="matrix(0.9999 -1.190971e-02 1.190971e-02 0.9999 53.2068 25.499)" gradientUnits="userSpaceOnUse">
				<stop  offset="1.198948e-03" style="stop-color:#333333"/>
				<stop  offset="0.2681" style="stop-color:#2E2E2E"/>
				<stop  offset="0.5667" style="stop-color:#212121"/>
				<stop  offset="0.8795" style="stop-color:#0B0B0B"/>
				<stop  offset="1" style="stop-color:#000000"/>
			</radialGradient>
			<path class="st9" d="M-2.1,218C-2.2,218-2.2,218-2.1,218C-2.2,218-2.2,218-2.1,218z"/>
		</g>
		<g>
			
				<radialGradient id="SVGID_8_" cx="-26.4868" cy="120.0299" r="0.2269" gradientTransform="matrix(0.9999 -1.301809e-02 1.301809e-02 0.9999 13.3644 29.4498)" gradientUnits="userSpaceOnUse">
				<stop  offset="1.198948e-03" style="stop-color:#333333"/>
				<stop  offset="0.2681" style="stop-color:#2E2E2E"/>
				<stop  offset="0.5667" style="stop-color:#212121"/>
				<stop  offset="0.8795" style="stop-color:#0B0B0B"/>
				<stop  offset="1" style="stop-color:#000000"/>
			</radialGradient>
			<path class="st10" d="M-12,150c0.2-0.1,0.5-0.2,0.7-0.2C-11.5,149.8-11.7,149.9-12,150z"/>
		</g>
		<g>
			
				<radialGradient id="SVGID_9_" cx="-37.8605" cy="240.5528" r="1.624348e-02" gradientTransform="matrix(0.9999 1.262036e-02 -1.262036e-02 0.9999 27.7076 -13.6568)" gradientUnits="userSpaceOnUse">
				<stop  offset="1.198948e-03" style="stop-color:#333333"/>
				<stop  offset="0.2681" style="stop-color:#2E2E2E"/>
				<stop  offset="0.5667" style="stop-color:#212121"/>
				<stop  offset="0.8795" style="stop-color:#0B0B0B"/>
				<stop  offset="1" style="stop-color:#000000"/>
			</radialGradient>
			<path class="st11" d="M-13.2,226.4C-13.2,226.4-13.2,226.4-13.2,226.4C-13.2,226.4-13.2,226.4-13.2,226.4z"/>
		</g>
		<path class="st12" d="M42.9,187.5L42.9,187.5L42.9,187.5c-0.8-20.6-20-36.6-42.7-34.9c-20.2,1.5-36.2,17-36.7,35.6
			c-0.3,9.7,3.5,18.4,9.9,25c6.8,7.1,13,14.7,18,22.9l2.3,3.8l22.6-0.9l1.9-3.8c4.4-8.7,10-16.8,16.3-24.4
			C40.1,204.5,43.2,196.3,42.9,187.5z"/>
		<path class="st4" d="M34.1,187.8L34.1,187.8L34.1,187.8c-0.8-20.6-15.9-36.7-33.5-35.2c-15.7,1.3-28,16.7-28.3,35.3
			c-0.1,9.7,2.9,18.5,7.9,25.1c5.4,7.1,10.2,14.8,14.2,23.1l1.9,3.8l17.6-0.7l1.5-3.8c3.4-8.6,7.6-16.7,12.5-24.2
			C32,204.8,34.4,196.6,34.1,187.8z"/>
		<path class="st12" d="M23.1,188.2L23.1,188.2L23.1,188.2c-0.8-20.6-10.7-36.9-22.1-35.7c-10.1,1.1-17.9,16.3-17.8,34.9
			c0,9.7,2.1,18.5,5.4,25.2c3.6,7.2,6.8,14.9,9.5,23.2l1.2,3.9l11.4-0.4l0.9-3.7c2.1-8.6,4.7-16.6,7.7-24
			C22,205.1,23.4,197,23.1,188.2z"/>
		<path class="st4" d="M11.4,188.6L11.4,188.6L11.4,188.6c-0.8-20.6-5.3-37.1-9.9-36.1c-4.2,0.9-7.1,15.9-6.6,34.5
			c0.2,9.7,1.3,18.5,2.8,25.3c1.6,7.3,3.1,15,4.4,23.4l0.6,3.9l4.7-0.2l0.3-3.7c0.7-8.5,1.6-16.4,2.7-23.8
			C11.4,205.5,11.8,197.4,11.4,188.6z"/>
		<path class="st6" d="M16.4,239.1c0,0.8-5,1.6-11.3,1.9c-6.3,0.2-11.3-0.2-11.4-1c0-0.8,5-1.6,11.3-1.9
			C11.3,237.9,16.4,238.3,16.4,239.1z"/>
		<g>
			<line class="st7" x1="-5.5" y1="239.9" x2="-2.9" y2="251.1"/>
			<line class="st7" x1="0.3" y1="239.7" x2="-1.1" y2="251"/>
		</g>
		<g>
			<line class="st7" x1="15.7" y1="239.1" x2="14" y2="250.5"/>
			<line class="st7" x1="10.5" y1="239.3" x2="9.6" y2="250.7"/>
		</g>
		<linearGradient id="SVGID_10_" gradientUnits="userSpaceOnUse" x1="-13.1625" y1="256.5906" x2="6.602" y2="255.5594">
			<stop  offset="1.198948e-03" style="stop-color:#CCCCCC"/>
			<stop  offset="0.133" style="stop-color:#C9C8C7"/>
			<stop  offset="0.2805" style="stop-color:#C1BEBA"/>
			<stop  offset="0.4356" style="stop-color:#B4ACA3"/>
			<stop  offset="0.5961" style="stop-color:#A29284"/>
			<stop  offset="0.7607" style="stop-color:#8A725C"/>
			<stop  offset="0.9264" style="stop-color:#6E4B2B"/>
			<stop  offset="1" style="stop-color:#603813"/>
		</linearGradient>
		<path class="st13" d="M-2.3,250l15.3-0.8c1.4-0.1,2.5,1,2.4,2.4l-0.7,7.7c-0.1,1.1-1,1.9-2.1,2L-0.5,262c-1.1,0.1-2.2-0.7-2.4-1.8
			l-1.5-7.7C-4.6,251.2-3.6,250-2.3,250z"/>
	</g>
	<g>
		<g>
			
				<radialGradient id="SVGID_11_" cx="-186.4109" cy="-91.6135" r="8.653359e-03" gradientTransform="matrix(0.9999 -1.190971e-02 1.190971e-02 0.9999 53.2068 25.499)" gradientUnits="userSpaceOnUse">
				<stop  offset="1.198948e-03" style="stop-color:#333333"/>
				<stop  offset="0.2681" style="stop-color:#2E2E2E"/>
				<stop  offset="0.5667" style="stop-color:#212121"/>
				<stop  offset="0.8795" style="stop-color:#0B0B0B"/>
				<stop  offset="1" style="stop-color:#000000"/>
			</radialGradient>
			<path class="st14" d="M-134.3-63.9C-134.3-63.9-134.3-63.9-134.3-63.9C-134.3-63.9-134.3-63.9-134.3-63.9z"/>
		</g>
		<g>
			
				<radialGradient id="SVGID_12_" cx="-150.8009" cy="-130.4087" r="0.1169" gradientTransform="matrix(0.9999 -1.301809e-02 1.301809e-02 0.9999 13.3644 29.4498)" gradientUnits="userSpaceOnUse">
				<stop  offset="1.198948e-03" style="stop-color:#333333"/>
				<stop  offset="0.2681" style="stop-color:#2E2E2E"/>
				<stop  offset="0.5667" style="stop-color:#212121"/>
				<stop  offset="0.8795" style="stop-color:#0B0B0B"/>
				<stop  offset="1" style="stop-color:#000000"/>
			</radialGradient>
			<path class="st15" d="M-139.3-98.9c0.1,0,0.3-0.1,0.4-0.1C-139.1-99-139.2-99-139.3-98.9z"/>
		</g>
		<g>
			
				<radialGradient id="SVGID_13_" cx="-168.2333" cy="-43.7629" r="8.366274e-03" gradientTransform="matrix(0.9999 1.262036e-02 -1.262036e-02 0.9999 27.7076 -13.6568)" gradientUnits="userSpaceOnUse">
				<stop  offset="1.198948e-03" style="stop-color:#333333"/>
				<stop  offset="0.2681" style="stop-color:#2E2E2E"/>
				<stop  offset="0.5667" style="stop-color:#212121"/>
				<stop  offset="0.8795" style="stop-color:#0B0B0B"/>
				<stop  offset="1" style="stop-color:#000000"/>
			</radialGradient>
			<path class="st16" d="M-140-59.5C-140-59.5-140-59.5-140-59.5C-140-59.5-140-59.5-140-59.5z"/>
		</g>
		<linearGradient id="SVGID_14_" gradientUnits="userSpaceOnUse" x1="-105.7264" y1="-97.3832" x2="-145.9006" y2="-63.6471">
			<stop  offset="7.942073e-02" style="stop-color:#61FFFB"/>
			<stop  offset="0.4626" style="stop-color:#45DDD5"/>
			<stop  offset="0.7995" style="stop-color:#31C5BB"/>
			<stop  offset="0.9988" style="stop-color:#2ABCB1"/>
		</linearGradient>
		<path class="st17" d="M-111.1-79.6L-111.1-79.6L-111.1-79.6c-0.4-10.6-10.3-18.8-22-18c-10.4,0.8-18.7,8.8-18.9,18.3
			c-0.1,5,1.8,9.5,5.1,12.9c3.5,3.6,6.7,7.6,9.3,11.8l1.2,2l11.7-0.4l1-1.9c2.3-4.5,5.2-8.6,8.4-12.5
			C-112.5-70.8-110.9-75.1-111.1-79.6z"/>
		<path class="st4" d="M-115.6-79.4L-115.6-79.4L-115.6-79.4c-0.4-10.6-8.2-18.9-17.2-18.1c-8.1,0.7-14.4,8.6-14.6,18.2
			c-0.1,5,1.5,9.5,4.1,12.9c2.8,3.7,5.3,7.6,7.3,11.9l1,2l9.1-0.3l0.8-1.9c1.7-4.4,3.9-8.6,6.4-12.5
			C-116.7-70.7-115.5-74.9-115.6-79.4z"/>
		<linearGradient id="SVGID_15_" gradientUnits="userSpaceOnUse" x1="-105.2384" y1="-96.8021" x2="-145.4127" y2="-63.0661">
			<stop  offset="7.942073e-02" style="stop-color:#61FFFB"/>
			<stop  offset="0.4626" style="stop-color:#45DDD5"/>
			<stop  offset="0.7995" style="stop-color:#31C5BB"/>
			<stop  offset="0.9988" style="stop-color:#2ABCB1"/>
		</linearGradient>
		<path class="st18" d="M-121.3-79.2L-121.3-79.2L-121.3-79.2c-0.4-10.6-5.5-19-11.4-18.4c-5.2,0.6-9.2,8.4-9.2,18
			c0,5,1.1,9.5,2.8,13c1.8,3.7,3.5,7.7,4.9,12l0.6,2l5.8-0.2l0.5-1.9c1.1-4.4,2.4-8.5,4-12.4C-121.8-70.5-121.1-74.7-121.3-79.2z"/>
		<path class="st4" d="M-127.3-79L-127.3-79L-127.3-79c-0.4-10.6-2.7-19.1-5.1-18.6c-2.1,0.5-3.6,8.2-3.4,17.8c0.1,5,0.7,9.5,1.4,13
			c0.8,3.7,1.6,7.7,2.3,12.1l0.3,2l2.4-0.1l0.2-1.9c0.3-4.4,0.8-8.5,1.4-12.3C-127.3-70.3-127.1-74.5-127.3-79z"/>
		<path class="st6" d="M-124.7-53c0,0.4-2.6,0.8-5.8,1c-3.2,0.1-5.8-0.1-5.9-0.5c0-0.4,2.6-0.8,5.8-1
			C-127.3-53.6-124.7-53.4-124.7-53z"/>
		<g>
			<line class="st19" x1="-136" y1="-52.6" x2="-134.7" y2="-46.8"/>
			<line class="st19" x1="-133.3" y1="-52.7" x2="-132.4" y2="-46.9"/>
		</g>
		<g>
			<line class="st19" x1="-125.1" y1="-53" x2="-126" y2="-47.1"/>
		</g>
		<linearGradient id="SVGID_16_" gradientUnits="userSpaceOnUse" x1="-139.9384" y1="-43.5316" x2="-129.7597" y2="-44.0626">
			<stop  offset="1.198948e-03" style="stop-color:#CCCCCC"/>
			<stop  offset="0.133" style="stop-color:#C9C8C7"/>
			<stop  offset="0.2805" style="stop-color:#C1BEBA"/>
			<stop  offset="0.4356" style="stop-color:#B4ACA3"/>
			<stop  offset="0.5961" style="stop-color:#A29284"/>
			<stop  offset="0.7607" style="stop-color:#8A725C"/>
			<stop  offset="0.9264" style="stop-color:#6E4B2B"/>
			<stop  offset="1" style="stop-color:#603813"/>
		</linearGradient>
		<path class="st20" d="M-134.3-46.9l7.9-0.4c0.7,0,1.3,0.5,1.2,1.2l-0.4,4c-0.1,0.5-0.5,1-1.1,1l-6.8,0.4c-0.6,0-1.1-0.4-1.2-0.9
			l-0.7-4C-135.5-46.3-135-46.9-134.3-46.9z"/>
	</g>
	<g>
		<g>
			
				<radialGradient id="SVGID_17_" cx="-35.1239" cy="10.2679" r="8.908095e-03" gradientTransform="matrix(0.9999 -1.190971e-02 1.190971e-02 0.9999 53.2068 25.499)" gradientUnits="userSpaceOnUse">
				<stop  offset="1.198948e-03" style="stop-color:#333333"/>
				<stop  offset="0.2681" style="stop-color:#2E2E2E"/>
				<stop  offset="0.5667" style="stop-color:#212121"/>
				<stop  offset="0.8795" style="stop-color:#0B0B0B"/>
				<stop  offset="1" style="stop-color:#000000"/>
			</radialGradient>
			<path class="st21" d="M18.2,36.2C18.2,36.2,18.2,36.2,18.2,36.2C18.2,36.2,18.2,36.2,18.2,36.2z"/>
		</g>
		<g>
			
				<radialGradient id="SVGID_18_" cx="0.244" cy="-29.3946" r="0.1203" gradientTransform="matrix(0.9999 -1.301809e-02 1.301809e-02 0.9999 13.3644 29.4498)" gradientUnits="userSpaceOnUse">
				<stop  offset="1.198948e-03" style="stop-color:#333333"/>
				<stop  offset="0.2681" style="stop-color:#2E2E2E"/>
				<stop  offset="0.5667" style="stop-color:#212121"/>
				<stop  offset="0.8795" style="stop-color:#0B0B0B"/>
				<stop  offset="1" style="stop-color:#000000"/>
			</radialGradient>
			<path class="st22" d="M13,0.1c0.1,0,0.3-0.1,0.4-0.1C13.3,0,13.1,0.1,13,0.1z"/>
		</g>
		<g>
			
				<radialGradient id="SVGID_19_" cx="-14.6584" cy="54.5071" r="8.612558e-03" gradientTransform="matrix(0.9999 1.262036e-02 -1.262036e-02 0.9999 27.7076 -13.6568)" gradientUnits="userSpaceOnUse">
				<stop  offset="1.198948e-03" style="stop-color:#333333"/>
				<stop  offset="0.2681" style="stop-color:#2E2E2E"/>
				<stop  offset="0.5667" style="stop-color:#212121"/>
				<stop  offset="0.8795" style="stop-color:#0B0B0B"/>
				<stop  offset="1" style="stop-color:#000000"/>
			</radialGradient>
			<path class="st23" d="M12.4,40.7C12.4,40.7,12.4,40.7,12.4,40.7C12.4,40.7,12.4,40.7,12.4,40.7z"/>
		</g>
		<path class="st24" d="M42.1,20L42.1,20L42.1,20C41.7,9.1,31.5,0.6,19.5,1.5C8.8,2.3,0.3,10.5,0,20.4c-0.1,5.1,1.9,9.8,5.2,13.3
			c3.6,3.8,6.9,7.8,9.6,12.1l1.2,2l12-0.5l1-2c2.4-4.6,5.3-8.9,8.7-12.9C40.6,29,42.3,24.7,42.1,20z"/>
		<path class="st4" d="M37.4,20.2L37.4,20.2L37.4,20.2C37,9.3,29,0.7,19.7,1.5c-8.3,0.7-14.9,8.9-15,18.7C4.6,25.4,6.2,30,8.9,33.5
			c2.8,3.8,5.4,7.8,7.5,12.2l1,2l9.3-0.4l0.8-2c1.8-4.6,4.1-8.8,6.6-12.8C36.3,29.2,37.6,24.9,37.4,20.2z"/>
		<path class="st24" d="M31.6,20.4L31.6,20.4L31.6,20.4C31.2,9.5,25.9,0.8,19.9,1.5c-5.4,0.6-9.5,8.7-9.4,18.5
			c0,5.1,1.1,9.8,2.9,13.4c1.9,3.8,3.6,7.9,5,12.3l0.7,2.1l6-0.2l0.5-2c1.1-4.5,2.5-8.8,4.1-12.7C31,29.4,31.8,25.1,31.6,20.4z"/>
		<path class="st4" d="M25.4,20.6L25.4,20.6L25.4,20.6C25,9.7,22.6,1,20.2,1.5c-2.2,0.5-3.7,8.4-3.5,18.3c0.1,5.1,0.7,9.8,1.5,13.4
			c0.9,3.9,1.7,8,2.4,12.4l0.3,2.1l2.5-0.1l0.2-2c0.4-4.5,0.8-8.7,1.4-12.6C25.4,29.6,25.6,25.3,25.4,20.6z"/>
		<path class="st6" d="M28.1,47.4c0,0.4-2.7,0.9-6,1c-3.3,0.1-6-0.1-6-0.5c0-0.4,2.7-0.9,6-1C25.3,46.7,28,47,28.1,47.4z"/>
		<g>
			<line class="st19" x1="16.4" y1="47.8" x2="17.8" y2="53.8"/>
			<line class="st19" x1="19.2" y1="47.7" x2="20.2" y2="53.7"/>
		</g>
		<g>
			<line class="st19" x1="27.7" y1="47.4" x2="26.8" y2="53.4"/>
		</g>
		<path d="M18.2,53.6l8.1-0.4c0.7,0,1.3,0.6,1.3,1.3l-0.4,4.1c-0.1,0.6-0.5,1-1.1,1l-7,0.4c-0.6,0-1.1-0.4-1.3-0.9L17,55
			C16.9,54.3,17.4,53.7,18.2,53.6z"/>
	</g>
</g>
<g id="Layer_14">
</g>
<g id="Layer_3">
</g>
<g id="Layer_1">
	<rect x="2466.6" y="-1494" class="st25" width="983" height="1852"/>
	<g id="Layer_2">
	</g>
	<polyline class="st25" points="2787.6,-1615.3 2787.6,-1200 341.6,-1200 341.6,-3052 2787.6,-3052 2787.6,-1615.3 	"/>
</g>
<g id="Layer_15">
</g>
</svg>
