<?xml version="1.0" encoding="UTF-8"?>
<svg width="34px" height="32px" viewBox="0 0 34 32" version="1.1" xmlns="http://www.w3.org/2000/svg" xmlns:xlink="http://www.w3.org/1999/xlink">
    <!-- Generator: Sketch 52.5 (67469) - http://www.bohemiancoding.com/sketch -->
    <title>thumbs-up-hand-symbol</title>
    <desc>Created with Sketch.</desc>
    <defs>
        <polygon id="path-1" points="0 0 32.7067669 0 32.7067669 31.6165414 0 31.6165414"></polygon>
        <linearGradient x1="92.4424588%" y1="0%" x2="8.71538174%" y2="113.820312%" id="linearGradient-3">
            <stop stop-color="#F25D2A" offset="4.14559249%"></stop>
            <stop stop-color="#FB9020" offset="100%"></stop>
        </linearGradient>
    </defs>
    <g id="Symbols" stroke="none" stroke-width="1" fill="none" fill-rule="evenodd">
        <g id="Landing-Page---Featured" transform="translate(-805.000000, -3002.000000)">
            <g id="Group-31" transform="translate(314.000000, 2637.000000)">
                <g id="thumbs-up-hand-symbol" transform="translate(491.691729, 365.225564)">
                    <mask id="mask-2" fill="white">
                        <use xlink:href="#path-1"></use>
                    </mask>
                    <g id="Clip-2"></g>
                    <path d="M31.5833567,17.5580079 C32.3319832,16.6933241 32.7067669,15.6719993 32.7067669,14.4915069 C32.7067669,13.4206001 32.3184973,12.4952811 31.5428989,11.7120759 C30.7663596,10.9298181 29.8461793,10.5388471 28.7839263,10.5388471 L23.1217128,10.5388471 C23.1756566,10.3465197 23.2305413,10.1822993 23.284485,10.0439751 C23.3384288,9.90723002 23.4143264,9.75658934 23.5099825,9.59142147 C23.6043841,9.42720102 23.6727547,9.30403569 23.7132125,9.22129385 C23.9597229,8.75484462 24.146958,8.37018981 24.2755449,8.06922426 C24.4053862,7.76699548 24.5342867,7.35486532 24.6641281,6.83314959 C24.7939695,6.31238129 24.8588902,5.79066557 24.8588902,5.26863404 C24.8588902,4.93924572 24.8551267,4.67175588 24.8479133,4.46679613 C24.8416407,4.26088895 24.8074555,3.95139658 24.7459847,3.54052965 C24.6848275,3.1283995 24.6026573,2.78543141 24.5010423,2.5116254 C24.3981728,2.23655615 24.235087,1.9280112 24.0099032,1.58504311 C23.7856602,1.24081179 23.5124915,0.963531886 23.1925924,0.75130854 C22.8717525,0.53782196 22.4637244,0.360021747 21.9650582,0.21569724 C21.4676465,0.0713727323 20.9065686,0 20.2793156,0 C19.9239767,0 19.6178772,0.13074474 19.359449,0.390970985 C19.0859666,0.664776997 18.8545102,1.00900832 18.6635117,1.41987524 C18.473454,1.8320054 18.3401627,2.18823744 18.265206,2.49078203 C18.1905629,2.79301082 18.1049428,3.21114134 18.0092867,3.74643683 C17.8866588,4.32247162 17.7947662,4.73712825 17.733609,4.99103832 C17.6724518,5.2452642 17.5523329,5.57844222 17.3757611,5.98930915 C17.1982485,6.4011235 16.9874915,6.73051181 16.7412947,6.9774741 C16.2915542,7.43002775 15.6043985,8.25428807 14.6770048,9.44709696 C14.009294,10.3253605 13.3208837,11.1556212 12.612715,11.937879 C11.9032918,12.7210842 11.3864353,13.1256349 11.0593228,13.1527945 C10.7187244,13.179954 10.4257972,13.3204888 10.1796004,13.5747147 C9.93465805,13.8289406 9.81203008,14.1273797 9.81203008,14.4703478 L9.81203008,27.6651448 C9.81203008,28.0216926 9.94187146,28.3264479 10.2002997,28.5806738 C10.4590416,28.8345838 10.7663956,28.967855 11.12048,28.9814348 C11.5971923,28.9962778 12.6738722,29.2972434 14.3498924,29.8881212 C15.399914,30.244669 16.2206746,30.5162644 16.8134288,30.7013282 C17.405242,30.886392 18.2335297,31.0847198 19.2967237,31.2982063 C20.3589767,31.5104297 21.3403141,31.6165414 22.2394814,31.6165414 L24.8770805,31.6165414 C26.6904692,31.5893818 28.0318498,31.0540863 28.9040452,30.0116023 C29.6943841,29.0654399 30.0274555,27.8230491 29.906082,26.2860088 C30.4367381,25.7778729 30.8055629,25.1339393 31.0087929,24.3516815 C31.2402493,23.5141572 31.2402493,22.7110561 31.0087929,21.9436413 C31.6360459,21.106117 31.9289731,20.165955 31.8885153,19.1234709 C31.8897698,18.6832338 31.7878412,18.1627813 31.5833567,17.5580079 Z" id="Fill-1" fill="url(#linearGradient-3)" mask="url(#mask-2)"></path>
                    <path d="M7.37974098,13.0827068 L1.34206353,13.0827068 C0.978882865,13.0827068 0.66331136,13.2179559 0.398244163,13.4871474 C0.133176966,13.7563389 0,14.0768205 0,14.4456521 L0,28.0731449 C0,28.4419765 0.133176966,28.7611514 0.398244163,29.0316496 C0.664598094,29.3008411 0.978882865,29.4360902 1.34206353,29.4360902 L7.37974098,29.4360902 C7.74420838,29.4360902 8.05849315,29.3008411 8.32356035,29.0316496 C8.58991428,28.7611514 8.72180451,28.4419765 8.72180451,28.0731449 L8.72180451,14.4456521 C8.72180451,14.0768205 8.58991428,13.7563389 8.32356035,13.4871474 C8.05849315,13.2179559 7.74420838,13.0827068 7.37974098,13.0827068 Z M4.96840153,26.3158864 C4.70333433,26.5788708 4.38937124,26.7101996 4.02619058,26.7101996 C3.6478908,26.7101996 3.33006751,26.5788708 3.0711123,26.3158864 C2.81344382,26.0545354 2.68412705,25.7314403 2.68412705,25.347581 C2.68412705,24.9787495 2.81344382,24.6595746 3.0711123,24.3890763 C3.33006751,24.1198848 3.6478908,23.9846357 4.02619058,23.9846357 C4.38937124,23.9846357 4.70333433,24.1198848 4.96840153,24.3890763 C5.23475546,24.6595746 5.36825411,24.9787495 5.36825411,25.347581 C5.36825411,25.7314403 5.23475546,26.0545354 4.96840153,26.3158864 Z" id="Fill-3" fill="url(#linearGradient-3)" mask="url(#mask-2)"></path>
                </g>
            </g>
        </g>
    </g>
</svg>